<svg width="225" height="118" viewBox="0 0 225 118" fill="none" xmlns="http://www.w3.org/2000/svg">
<path d="M2.544 159L22.896 26.5H1.908V10.812H44.096V26.5L23.532 159H2.544ZM71.174 160.272C68.3474 160.272 65.5914 159.848 62.906 159C60.362 158.152 58.03 156.809 55.91 154.972C53.9314 153.135 52.306 150.803 51.034 147.976C49.762 145.008 49.126 141.545 49.126 137.588V32.224C49.126 28.2667 49.762 24.8747 51.034 22.048C52.306 19.08 53.9314 16.6773 55.91 14.84C58.03 13.0027 60.362 11.66 62.906 10.812C65.5914 9.96399 68.3474 9.53999 71.174 9.53999H75.414C78.0994 9.53999 80.7847 9.96399 83.47 10.812C86.1554 11.66 88.4874 13.0027 90.466 14.84C92.586 16.6773 94.282 19.08 95.554 22.048C96.826 24.8747 97.462 28.2667 97.462 32.224V137.588C97.462 141.545 96.826 145.008 95.554 147.976C94.282 150.803 92.586 153.135 90.466 154.972C88.4874 156.809 86.1554 158.152 83.47 159C80.7847 159.848 78.0994 160.272 75.414 160.272H71.174ZM73.082 27.136C71.1034 27.136 70.114 29.892 70.114 35.404V134.408C70.114 137.376 70.326 139.496 70.75 140.768C71.174 142.04 71.9514 142.676 73.082 142.676H73.506C74.6367 142.676 75.414 142.04 75.838 140.768C76.262 139.496 76.474 137.376 76.474 134.408V35.404C76.474 29.892 75.4847 27.136 73.506 27.136H73.082ZM124.588 160.272C121.761 160.272 119.005 159.848 116.32 159C113.776 158.152 111.444 156.809 109.324 154.972C107.345 153.135 105.72 150.803 104.448 147.976C103.176 145.008 102.54 141.545 102.54 137.588V32.224C102.54 28.2667 103.176 24.8747 104.448 22.048C105.72 19.08 107.345 16.6773 109.324 14.84C111.444 13.0027 113.776 11.66 116.32 10.812C119.005 9.96399 121.761 9.53999 124.588 9.53999H128.828C131.513 9.53999 134.199 9.96399 136.884 10.812C139.569 11.66 141.901 13.0027 143.88 14.84C146 16.6773 147.696 19.08 148.968 22.048C150.24 24.8747 150.876 28.2667 150.876 32.224V137.588C150.876 141.545 150.24 145.008 148.968 147.976C147.696 150.803 146 153.135 143.88 154.972C141.901 156.809 139.569 158.152 136.884 159C134.199 159.848 131.513 160.272 128.828 160.272H124.588ZM126.496 27.136C124.517 27.136 123.528 29.892 123.528 35.404V134.408C123.528 137.376 123.74 139.496 124.164 140.768C124.588 142.04 125.365 142.676 126.496 142.676H126.92C128.051 142.676 128.828 142.04 129.252 140.768C129.676 139.496 129.888 137.376 129.888 134.408V35.404C129.888 29.892 128.899 27.136 126.92 27.136H126.496ZM177.154 77.804V53.424H193.266V77.804H214.89V92.008H193.266V116.176H177.154V92.008H155.954V77.804H177.154Z" fill="#8E94F2"/>
</svg>
