<svg width="800" height="180" viewBox="0 0 800 180" fill="none" xmlns="http://www.w3.org/2000/svg">
<path d="M778 10H22C15.3726 10 10 15.3726 10 22V158C10 164.627 15.3726 170 22 170H778C784.627 170 790 164.627 790 158V22C790 15.3726 784.627 10 778 10Z" fill="black"/>
<path d="M770 2H14C7.37258 2 2 7.37258 2 14V150C2 156.627 7.37258 162 14 162H770C776.627 162 782 156.627 782 150V14C782 7.37258 776.627 2 770 2Z" fill="#181721" stroke="black" stroke-width="4"/>
<path d="M2 42H780" stroke="black" stroke-width="3"/>
<path d="M30 29C33.866 29 37 25.866 37 22C37 18.134 33.866 15 30 15C26.134 15 23 18.134 23 22C23 25.866 26.134 29 30 29Z" fill="#FF5F56" stroke="black" stroke-width="2.5"/>
<path d="M50 29C53.866 29 57 25.866 57 22C57 18.134 53.866 15 50 15C46.134 15 43 18.134 43 22C43 25.866 46.134 29 50 29Z" fill="#FFBD2E" stroke="black" stroke-width="2.5"/>
<path d="M70 29C73.866 29 77 25.866 77 22C77 18.134 73.866 15 70 15C66.134 15 63 18.134 63 22C63 25.866 66.134 29 70 29Z" fill="#27C93F" stroke="black" stroke-width="2.5"/>
<path d="M446 10H354C351.791 10 350 11.7909 350 14V30C350 32.2091 351.791 34 354 34H446C448.209 34 450 32.2091 450 30V14C450 11.7909 448.209 10 446 10Z" fill="#0B0B12" stroke="black" stroke-width="2"/>
<path d="M376.873 28.5142C375.966 28.5142 375.159 28.3906 374.452 28.1435C373.745 27.8991 373.147 27.5398 372.658 27.0653C372.169 26.5938 371.797 26.017 371.542 25.3352C371.286 24.6534 371.158 23.8778 371.158 23.0085C371.158 22.1506 371.286 21.3722 371.542 20.6733C371.8 19.9744 372.176 19.375 372.671 18.875C373.165 18.3722 373.769 17.9858 374.482 17.7159C375.198 17.446 376.013 17.3111 376.928 17.3111C377.775 17.3111 378.53 17.4347 379.195 17.6818C379.863 17.929 380.428 18.2812 380.891 18.7386C381.357 19.1932 381.711 19.7344 381.952 20.3622C382.196 20.9872 382.317 21.679 382.314 22.4375C382.317 22.9602 382.272 23.4403 382.178 23.8778C382.084 24.3153 381.936 24.6974 381.735 25.0241C381.536 25.348 381.275 25.6051 380.951 25.7955C380.627 25.983 380.235 26.0895 379.775 26.1151C379.445 26.1406 379.178 26.1165 378.973 26.0426C378.769 25.9687 378.613 25.8594 378.505 25.7145C378.4 25.5668 378.331 25.3949 378.3 25.1989H378.249C378.181 25.3693 378.047 25.5241 377.848 25.6634C377.65 25.7997 377.407 25.9062 377.12 25.983C376.836 26.0568 376.533 26.0838 376.212 26.0639C375.877 26.044 375.559 25.9659 375.257 25.8295C374.959 25.6932 374.694 25.4957 374.461 25.2372C374.23 24.9787 374.049 24.6591 373.915 24.2784C373.784 23.8977 373.718 23.4574 373.715 22.9574C373.718 22.4631 373.787 22.0327 373.924 21.6662C374.063 21.2997 374.246 20.9915 374.473 20.7415C374.703 20.4915 374.959 20.2955 375.24 20.1534C375.522 20.0114 375.804 19.9205 376.088 19.8807C376.409 19.8324 376.713 19.8324 377 19.8807C377.287 19.929 377.529 20.0071 377.725 20.1151C377.924 20.223 378.047 20.3395 378.096 20.4645H378.155V19.9872H379.489V24.1463C379.492 24.3423 379.536 24.4943 379.621 24.6023C379.706 24.7102 379.821 24.7642 379.966 24.7642C380.162 24.7642 380.326 24.6776 380.456 24.5043C380.59 24.331 380.689 24.0653 380.755 23.7074C380.823 23.3494 380.857 22.8935 380.857 22.3395C380.857 21.8054 380.786 21.3366 380.644 20.9332C380.505 20.527 380.309 20.1818 380.056 19.8977C379.806 19.6108 379.515 19.3778 379.182 19.1989C378.85 19.0199 378.489 18.8892 378.1 18.8068C377.713 18.7244 377.316 18.6832 376.907 18.6832C376.199 18.6832 375.581 18.7912 375.053 19.0071C374.525 19.2202 374.084 19.5199 373.732 19.9062C373.38 20.2926 373.115 20.7457 372.939 21.2656C372.766 21.7827 372.678 22.3466 372.675 22.9574C372.678 23.6307 372.772 24.2273 372.956 24.7472C373.144 25.2642 373.419 25.6989 373.783 26.0511C374.147 26.4034 374.596 26.6705 375.13 26.8523C375.664 27.0341 376.277 27.125 376.971 27.125C377.297 27.125 377.617 27.1009 377.929 27.0526C378.242 27.0071 378.525 26.9503 378.777 26.8821C379.03 26.8168 379.233 26.7528 379.387 26.6903L379.809 27.9261C379.63 28.0284 379.387 28.1236 379.08 28.2116C378.776 28.3026 378.432 28.375 378.049 28.429C377.668 28.4858 377.276 28.5142 376.873 28.5142ZM376.676 24.6619C377.023 24.6619 377.299 24.5952 377.503 24.4616C377.711 24.3281 377.858 24.1307 377.946 23.8693C378.037 23.6051 378.08 23.2798 378.074 22.8935C378.071 22.5526 378.027 22.2642 377.942 22.0284C377.86 21.7898 377.716 21.6094 377.512 21.4872C377.31 21.3622 377.029 21.2997 376.668 21.2997C376.353 21.2997 376.084 21.3665 375.863 21.5C375.644 21.6335 375.476 21.821 375.36 22.0625C375.246 22.3011 375.188 22.5824 375.185 22.9062C375.188 23.2074 375.236 23.4929 375.33 23.7628C375.424 24.0298 375.578 24.2472 375.794 24.4148C376.01 24.5795 376.304 24.6619 376.676 24.6619ZM385.933 26.1065C385.436 26.1065 384.986 25.9787 384.582 25.723C384.182 25.4645 383.864 25.0852 383.628 24.5852C383.395 24.0824 383.278 23.4659 383.278 22.7358C383.278 21.9858 383.399 21.3622 383.641 20.8651C383.882 20.3651 384.203 19.9915 384.604 19.7443C385.007 19.4943 385.449 19.3693 385.929 19.3693C386.295 19.3693 386.601 19.4318 386.845 19.5568C387.092 19.679 387.291 19.8324 387.442 20.017C387.595 20.1989 387.712 20.3778 387.791 20.554H387.847V17.2727H389.658V26H387.868V24.9517H387.791C387.706 25.1335 387.585 25.3139 387.429 25.4929C387.276 25.669 387.075 25.8153 386.828 25.9318C386.584 26.0483 386.286 26.1065 385.933 26.1065ZM386.509 24.6619C386.801 24.6619 387.048 24.5824 387.25 24.4233C387.455 24.2614 387.611 24.0355 387.719 23.7457C387.83 23.456 387.885 23.1165 387.885 22.7273C387.885 22.3381 387.831 22 387.723 21.7131C387.615 21.4261 387.459 21.2045 387.254 21.0483C387.05 20.892 386.801 20.8139 386.509 20.8139C386.21 20.8139 385.959 20.8949 385.754 21.0568C385.55 21.2187 385.395 21.4432 385.29 21.7301C385.185 22.017 385.132 22.3494 385.132 22.7273C385.132 23.108 385.185 23.4446 385.29 23.7372C385.398 24.027 385.553 24.2543 385.754 24.419C385.959 24.581 386.21 24.6619 386.509 24.6619ZM391.15 19.4545H392.966V26.3239C392.966 26.8295 392.866 27.2386 392.667 27.5511C392.468 27.8636 392.183 28.0923 391.811 28.2372C391.441 28.3821 391 28.4545 390.485 28.4545C390.423 28.4545 390.363 28.4531 390.306 28.4503C390.247 28.4503 390.184 28.4489 390.119 28.446V27.027C390.167 27.0298 390.21 27.0312 390.247 27.0312C390.281 27.0341 390.318 27.0355 390.358 27.0355C390.65 27.0355 390.855 26.973 390.971 26.848C391.091 26.7259 391.15 26.5412 391.15 26.294V19.4545ZM392.054 18.6108C391.787 18.6108 391.556 18.5213 391.363 18.3423C391.17 18.1605 391.074 17.9432 391.074 17.6903C391.074 17.4403 391.17 17.2259 391.363 17.0469C391.556 16.8651 391.787 16.7741 392.054 16.7741C392.326 16.7741 392.558 16.8651 392.748 17.0469C392.941 17.2259 393.038 17.4403 393.038 17.6903C393.038 17.9432 392.941 18.1605 392.748 18.3423C392.558 18.5213 392.326 18.6108 392.054 18.6108ZM397.403 26.1278C396.729 26.1278 396.15 25.9915 395.664 25.7188C395.181 25.4432 394.809 25.054 394.548 24.5511C394.286 24.0455 394.156 23.4474 394.156 22.7571C394.156 22.0838 394.286 21.4929 394.548 20.9844C394.809 20.4759 395.177 20.0795 395.651 19.7955C396.129 19.5114 396.688 19.3693 397.33 19.3693C397.762 19.3693 398.164 19.4389 398.536 19.5781C398.911 19.7145 399.238 19.9205 399.516 20.196C399.798 20.4716 400.016 20.8182 400.173 21.2358C400.329 21.6506 400.407 22.1364 400.407 22.6932V23.1918H394.88V22.0668H398.698C398.698 21.8054 398.641 21.5739 398.528 21.3722C398.414 21.1705 398.256 21.0128 398.055 20.8991C397.856 20.7827 397.624 20.7244 397.36 20.7244C397.085 20.7244 396.84 20.7884 396.627 20.9162C396.417 21.0412 396.252 21.2102 396.133 21.4233C396.013 21.6335 395.952 21.8679 395.95 22.1264V23.196C395.95 23.5199 396.009 23.7997 396.129 24.0355C396.251 24.2713 396.423 24.4531 396.644 24.581C396.866 24.7088 397.129 24.7727 397.433 24.7727C397.634 24.7727 397.819 24.7443 397.987 24.6875C398.154 24.6307 398.298 24.5455 398.417 24.4318C398.536 24.3182 398.627 24.179 398.69 24.0142L400.369 24.125C400.283 24.5284 400.109 24.8807 399.844 25.1818C399.583 25.4801 399.245 25.7131 398.83 25.8807C398.418 26.0455 397.942 26.1278 397.403 26.1278ZM407.038 21.321L405.376 21.4233C405.347 21.2812 405.286 21.1534 405.192 21.0398C405.099 20.9233 404.975 20.831 404.822 20.7628C404.671 20.6918 404.491 20.6562 404.281 20.6562C403.999 20.6562 403.762 20.7159 403.569 20.8352C403.376 20.9517 403.279 21.108 403.279 21.304C403.279 21.4602 403.342 21.5923 403.467 21.7003C403.592 21.8082 403.806 21.8949 404.11 21.9602L405.295 22.1989C405.931 22.3295 406.406 22.5398 406.718 22.8295C407.031 23.1193 407.187 23.5 407.187 23.9716C407.187 24.4006 407.06 24.777 406.808 25.1009C406.558 25.4247 406.214 25.6776 405.776 25.8594C405.342 26.0384 404.84 26.1278 404.272 26.1278C403.406 26.1278 402.715 25.9474 402.201 25.5866C401.69 25.223 401.39 24.7287 401.302 24.1037L403.087 24.0099C403.141 24.2741 403.272 24.4759 403.479 24.6151C403.687 24.7514 403.952 24.8196 404.276 24.8196C404.594 24.8196 404.85 24.7585 405.043 24.6364C405.239 24.5114 405.339 24.3509 405.342 24.1548C405.339 23.9901 405.269 23.8551 405.133 23.75C404.996 23.642 404.786 23.5597 404.502 23.5028L403.369 23.277C402.729 23.1491 402.254 22.9276 401.941 22.6122C401.631 22.2969 401.477 21.8949 401.477 21.4062C401.477 20.9858 401.59 20.6236 401.817 20.3196C402.048 20.0156 402.37 19.7812 402.785 19.6165C403.202 19.4517 403.691 19.3693 404.251 19.3693C405.077 19.3693 405.728 19.544 406.202 19.8935C406.68 20.2429 406.958 20.7187 407.038 21.321ZM411.811 19.4545V20.8182H407.87V19.4545H411.811ZM408.765 17.8864H410.58V23.9886C410.58 24.1562 410.605 24.2869 410.657 24.3807C410.708 24.4716 410.779 24.5355 410.87 24.5724C410.963 24.6094 411.071 24.6278 411.194 24.6278C411.279 24.6278 411.364 24.6207 411.449 24.6065C411.534 24.5895 411.6 24.5767 411.645 24.5682L411.931 25.919C411.84 25.9474 411.712 25.9801 411.547 26.017C411.382 26.0568 411.182 26.081 410.946 26.0895C410.509 26.1065 410.125 26.0483 409.796 25.9148C409.469 25.7812 409.215 25.5739 409.033 25.2926C408.851 25.0114 408.762 24.6562 408.765 24.2273V17.8864ZM412.994 26V19.4545H414.809V26H412.994ZM413.906 18.6108C413.636 18.6108 413.404 18.5213 413.211 18.3423C413.021 18.1605 412.926 17.9432 412.926 17.6903C412.926 17.4403 413.021 17.2259 413.211 17.0469C413.404 16.8651 413.636 16.7741 413.906 16.7741C414.176 16.7741 414.406 16.8651 414.596 17.0469C414.789 17.2259 414.886 17.4403 414.886 17.6903C414.886 17.9432 414.789 18.1605 414.596 18.3423C414.406 18.5213 414.176 18.6108 413.906 18.6108ZM419.221 26.1278C418.55 26.1278 417.974 25.9858 417.491 25.7017C417.011 25.4148 416.641 25.017 416.383 24.5085C416.127 24 415.999 23.4148 415.999 22.7528C415.999 22.0824 416.129 21.4943 416.387 20.9886C416.648 20.4801 417.019 20.0838 417.499 19.7997C417.979 19.5128 418.55 19.3693 419.212 19.3693C419.783 19.3693 420.283 19.473 420.712 19.6804C421.141 19.8878 421.481 20.179 421.731 20.554C421.981 20.929 422.119 21.3693 422.144 21.875H420.431C420.383 21.5483 420.255 21.2855 420.048 21.0866C419.843 20.8849 419.575 20.7841 419.242 20.7841C418.961 20.7841 418.715 20.8608 418.505 21.0142C418.298 21.1648 418.136 21.3849 418.019 21.6747C417.903 21.9645 417.844 22.3153 417.844 22.7273C417.844 23.1449 417.901 23.5 418.015 23.7926C418.131 24.0852 418.295 24.3082 418.505 24.4616C418.715 24.6151 418.961 24.6918 419.242 24.6918C419.45 24.6918 419.636 24.6491 419.8 24.5639C419.968 24.4787 420.106 24.3551 420.214 24.1932C420.325 24.0284 420.397 23.831 420.431 23.6009H422.144C422.116 24.1009 421.979 24.5412 421.735 24.9219C421.494 25.2997 421.16 25.5952 420.734 25.8082C420.308 26.0213 419.803 26.1278 419.221 26.1278ZM424.951 24.1165L424.956 21.9389H425.22L427.316 19.4545H429.4L426.583 22.7443H426.153L424.951 24.1165ZM423.306 26V17.2727H425.122V26H423.306ZM427.397 26L425.471 23.1491L426.681 21.8665L429.524 26H427.397Z" fill="#8F93FF"/>
<path d="M24.4 89.5V75.1H27.12V81.02H33.56V75.1H36.28V89.5H33.56V83.56H27.12V89.5H24.4ZM44.1075 89.8C43.0008 89.8 42.0242 89.5633 41.1775 89.09C40.3375 88.61 39.6775 87.9533 39.1975 87.12C38.7242 86.28 38.4875 85.32 38.4875 84.24C38.4875 83.06 38.7208 82.0333 39.1875 81.16C39.6542 80.2867 40.2975 79.61 41.1175 79.13C41.9375 78.6433 42.8808 78.4 43.9475 78.4C45.0808 78.4 46.0442 78.6667 46.8375 79.2C47.6308 79.7333 48.2175 80.4833 48.5975 81.45C48.9775 82.4167 49.1108 83.5533 48.9975 84.86H46.3075V83.86C46.3075 82.76 46.1308 81.97 45.7775 81.49C45.4308 81.0033 44.8608 80.76 44.0675 80.76C43.1408 80.76 42.4575 81.0433 42.0175 81.61C41.5842 82.17 41.3675 83 41.3675 84.1C41.3675 85.1067 41.5842 85.8867 42.0175 86.44C42.4575 86.9867 43.1008 87.26 43.9475 87.26C44.4808 87.26 44.9375 87.1433 45.3175 86.91C45.6975 86.6767 45.9875 86.34 46.1875 85.9L48.9075 86.68C48.5008 87.6667 47.8575 88.4333 46.9775 88.98C46.1042 89.5267 45.1475 89.8 44.1075 89.8ZM40.5275 84.86V82.84H47.6875V84.86H40.5275ZM51.4555 89.5V74.8H54.1755V89.5H51.4555ZM57.3734 89.5V74.8H60.0934V89.5H57.3734ZM67.9514 89.8C66.8647 89.8 65.9114 89.5567 65.0914 89.07C64.2714 88.5833 63.6314 87.9133 63.1714 87.06C62.7181 86.2 62.4914 85.2133 62.4914 84.1C62.4914 82.9733 62.7247 81.9833 63.1914 81.13C63.6581 80.27 64.3014 79.6 65.1214 79.12C65.9414 78.64 66.8847 78.4 67.9514 78.4C69.0381 78.4 69.9914 78.6433 70.8114 79.13C71.6381 79.6167 72.2814 80.29 72.7414 81.15C73.2014 82.0033 73.4314 82.9867 73.4314 84.1C73.4314 85.22 73.1981 86.21 72.7314 87.07C72.2714 87.9233 71.6281 88.5933 70.8014 89.08C69.9814 89.56 69.0314 89.8 67.9514 89.8ZM67.9514 87.26C68.8247 87.26 69.4747 86.9667 69.9014 86.38C70.3347 85.7867 70.5514 85.0267 70.5514 84.1C70.5514 83.14 70.3314 82.3733 69.8914 81.8C69.4581 81.2267 68.8114 80.94 67.9514 80.94C67.3581 80.94 66.8714 81.0733 66.4914 81.34C66.1114 81.6067 65.8281 81.9767 65.6414 82.45C65.4614 82.9233 65.3714 83.4733 65.3714 84.1C65.3714 85.0667 65.5881 85.8367 66.0214 86.41C66.4614 86.9767 67.1047 87.26 67.9514 87.26ZM82.6544 89.5L78.4344 75.1H81.2944L83.9944 85L86.6944 75.12L89.5544 75.1L92.2544 85L94.9544 75.1H97.8144L93.5944 89.5H90.9144L88.1244 79.78L85.3344 89.5H82.6544ZM103.088 89.8C102.001 89.8 101.048 89.5567 100.228 89.07C99.4081 88.5833 98.7681 87.9133 98.3081 87.06C97.8548 86.2 97.6281 85.2133 97.6281 84.1C97.6281 82.9733 97.8615 81.9833 98.3281 81.13C98.7948 80.27 99.4381 79.6 100.258 79.12C101.078 78.64 102.021 78.4 103.088 78.4C104.175 78.4 105.128 78.6433 105.948 79.13C106.775 79.6167 107.418 80.29 107.878 81.15C108.338 82.0033 108.568 82.9867 108.568 84.1C108.568 85.22 108.335 86.21 107.868 87.07C107.408 87.9233 106.765 88.5933 105.938 89.08C105.118 89.56 104.168 89.8 103.088 89.8ZM103.088 87.26C103.961 87.26 104.611 86.9667 105.038 86.38C105.471 85.7867 105.688 85.0267 105.688 84.1C105.688 83.14 105.468 82.3733 105.028 81.8C104.595 81.2267 103.948 80.94 103.088 80.94C102.495 80.94 102.008 81.0733 101.628 81.34C101.248 81.6067 100.965 81.9767 100.778 82.45C100.598 82.9233 100.508 83.4733 100.508 84.1C100.508 85.0667 100.725 85.8367 101.158 86.41C101.598 86.9767 102.241 87.26 103.088 87.26ZM110.767 89.5V78.7H113.167V81.34L112.907 81C113.047 80.6267 113.234 80.2867 113.467 79.98C113.701 79.6733 113.987 79.42 114.327 79.22C114.587 79.06 114.871 78.9367 115.177 78.85C115.484 78.7567 115.801 78.7 116.127 78.68C116.454 78.6533 116.781 78.66 117.107 78.7V81.24C116.807 81.1467 116.457 81.1167 116.057 81.15C115.664 81.1767 115.307 81.2667 114.987 81.42C114.667 81.5667 114.397 81.7633 114.177 82.01C113.957 82.25 113.791 82.5367 113.677 82.87C113.564 83.1967 113.507 83.5667 113.507 83.98V89.5H110.767ZM119.209 89.5V74.8H121.929V89.5H119.209ZM129.307 89.8C128.314 89.8 127.444 89.55 126.697 89.05C125.951 88.55 125.367 87.87 124.947 87.01C124.534 86.15 124.327 85.18 124.327 84.1C124.327 83 124.537 82.0233 124.957 81.17C125.384 80.31 125.981 79.6333 126.747 79.14C127.514 78.6467 128.414 78.4 129.447 78.4C130.474 78.4 131.337 78.65 132.037 79.15C132.737 79.65 133.267 80.33 133.627 81.19C133.987 82.05 134.167 83.02 134.167 84.1C134.167 85.18 133.984 86.15 133.617 87.01C133.257 87.87 132.717 88.55 131.997 89.05C131.277 89.55 130.381 89.8 129.307 89.8ZM129.747 87.38C130.354 87.38 130.837 87.2433 131.197 86.97C131.564 86.6967 131.827 86.3133 131.987 85.82C132.147 85.3267 132.227 84.7533 132.227 84.1C132.227 83.4467 132.147 82.8733 131.987 82.38C131.827 81.8867 131.571 81.5033 131.217 81.23C130.871 80.9567 130.414 80.82 129.847 80.82C129.241 80.82 128.741 80.97 128.347 81.27C127.961 81.5633 127.674 81.96 127.487 82.46C127.301 82.9533 127.207 83.5 127.207 84.1C127.207 84.7067 127.297 85.26 127.477 85.76C127.657 86.2533 127.934 86.6467 128.307 86.94C128.681 87.2333 129.161 87.38 129.747 87.38ZM132.227 89.5V82.1H131.887V75.1H134.627V89.5H132.227ZM137.227 92.2L137.387 91.06C137.707 91.0867 137.967 91.0333 138.167 90.9C138.367 90.7733 138.504 90.5867 138.577 90.34C138.657 90.1 138.674 89.82 138.627 89.5H137.227V86.78H139.947V89.5C139.947 90.46 139.724 91.1867 139.277 91.68C138.831 92.1733 138.147 92.3467 137.227 92.2ZM147.959 89.5V75.1H150.679V89.5H147.959ZM160.681 89.8C159.908 89.8 159.251 89.6533 158.711 89.36C158.178 89.06 157.771 88.6633 157.491 88.17C157.218 87.67 157.081 87.12 157.081 86.52C157.081 86.02 157.158 85.5633 157.311 85.15C157.465 84.7367 157.711 84.3733 158.051 84.06C158.398 83.74 158.861 83.4733 159.441 83.26C159.841 83.1133 160.318 82.9833 160.871 82.87C161.425 82.7567 162.051 82.65 162.751 82.55C163.451 82.4433 164.221 82.3267 165.061 82.2L164.081 82.74C164.081 82.1 163.928 81.63 163.621 81.33C163.315 81.03 162.801 80.88 162.081 80.88C161.681 80.88 161.265 80.9767 160.831 81.17C160.398 81.3633 160.095 81.7067 159.921 82.2L157.461 81.42C157.735 80.5267 158.248 79.8 159.001 79.24C159.755 78.68 160.781 78.4 162.081 78.4C163.035 78.4 163.881 78.5467 164.621 78.84C165.361 79.1333 165.921 79.64 166.301 80.36C166.515 80.76 166.641 81.16 166.681 81.56C166.721 81.96 166.741 82.4067 166.741 82.9V89.5H164.361V87.28L164.701 87.74C164.175 88.4667 163.605 88.9933 162.991 89.32C162.385 89.64 161.615 89.8 160.681 89.8ZM161.261 87.66C161.761 87.66 162.181 87.5733 162.521 87.4C162.868 87.22 163.141 87.0167 163.341 86.79C163.548 86.5633 163.688 86.3733 163.761 86.22C163.901 85.9267 163.981 85.5867 164.001 85.2C164.028 84.8067 164.041 84.48 164.041 84.22L164.841 84.42C164.035 84.5533 163.381 84.6667 162.881 84.76C162.381 84.8467 161.978 84.9267 161.671 85C161.365 85.0733 161.095 85.1533 160.861 85.24C160.595 85.3467 160.378 85.4633 160.211 85.59C160.051 85.71 159.931 85.8433 159.851 85.99C159.778 86.1367 159.741 86.3 159.741 86.48C159.741 86.7267 159.801 86.94 159.921 87.12C160.048 87.2933 160.225 87.4267 160.451 87.52C160.678 87.6133 160.948 87.66 161.261 87.66ZM182.341 89.5V83.12C182.341 82.4067 182.171 81.8533 181.831 81.46C181.498 81.06 181.035 80.86 180.441 80.86C180.061 80.86 179.731 80.95 179.451 81.13C179.171 81.3033 178.951 81.55 178.791 81.87C178.638 82.1833 178.561 82.5467 178.561 82.96L177.421 82.2C177.421 81.46 177.595 80.8067 177.941 80.24C178.295 79.6733 178.765 79.2333 179.351 78.92C179.945 78.6 180.601 78.44 181.321 78.44C182.555 78.44 183.485 78.8067 184.111 79.54C184.745 80.2667 185.061 81.22 185.061 82.4V89.5H182.341ZM169.321 89.5V78.7H171.721V82.28H172.061V89.5H169.321ZM175.841 89.5V83.12C175.841 82.4067 175.671 81.8533 175.331 81.46C174.998 81.06 174.535 80.86 173.941 80.86C173.375 80.86 172.918 81.0567 172.571 81.45C172.231 81.8367 172.061 82.34 172.061 82.96L170.921 82.16C170.921 81.4533 171.098 80.82 171.451 80.26C171.805 79.7 172.278 79.2567 172.871 78.93C173.471 78.6033 174.141 78.44 174.881 78.44C175.728 78.44 176.421 78.62 176.961 78.98C177.508 79.34 177.911 79.82 178.171 80.42C178.431 81.02 178.561 81.68 178.561 82.4V89.5H175.841ZM197.106 89.8C196.039 89.8 195.076 89.6133 194.216 89.24C193.362 88.86 192.659 88.32 192.106 87.62C191.559 86.9133 191.212 86.0733 191.066 85.1L193.906 84.68C194.106 85.5067 194.519 86.1433 195.146 86.59C195.772 87.0367 196.486 87.26 197.286 87.26C197.732 87.26 198.166 87.19 198.586 87.05C199.006 86.91 199.349 86.7033 199.616 86.43C199.889 86.1567 200.026 85.82 200.026 85.42C200.026 85.2733 200.002 85.1333 199.956 85C199.916 84.86 199.846 84.73 199.746 84.61C199.646 84.49 199.502 84.3767 199.316 84.27C199.136 84.1633 198.906 84.0667 198.626 83.98L194.886 82.88C194.606 82.8 194.279 82.6867 193.906 82.54C193.539 82.3933 193.182 82.1833 192.836 81.91C192.489 81.6367 192.199 81.2767 191.966 80.83C191.739 80.3767 191.626 79.8067 191.626 79.12C191.626 78.1533 191.869 77.35 192.356 76.71C192.842 76.07 193.492 75.5933 194.306 75.28C195.119 74.9667 196.019 74.8133 197.006 74.82C197.999 74.8333 198.886 75.0033 199.666 75.33C200.446 75.6567 201.099 76.1333 201.626 76.76C202.152 77.38 202.532 78.14 202.766 79.04L199.826 79.54C199.719 79.0733 199.522 78.68 199.236 78.36C198.949 78.04 198.606 77.7967 198.206 77.63C197.812 77.4633 197.399 77.3733 196.966 77.36C196.539 77.3467 196.136 77.4067 195.756 77.54C195.382 77.6667 195.076 77.8533 194.836 78.1C194.602 78.3467 194.486 78.64 194.486 78.98C194.486 79.2933 194.582 79.55 194.776 79.75C194.969 79.9433 195.212 80.1 195.506 80.22C195.799 80.34 196.099 80.44 196.406 80.52L198.906 81.2C199.279 81.3 199.692 81.4333 200.146 81.6C200.599 81.76 201.032 81.9867 201.446 82.28C201.866 82.5667 202.209 82.9467 202.476 83.42C202.749 83.8933 202.886 84.4933 202.886 85.22C202.886 85.9933 202.722 86.67 202.396 87.25C202.076 87.8233 201.642 88.3 201.096 88.68C200.549 89.0533 199.929 89.3333 199.236 89.52C198.549 89.7067 197.839 89.8 197.106 89.8ZM208.004 89.5L204.084 78.7H206.804L209.364 86.18L211.924 78.7H214.644L210.724 89.5H208.004ZM216.651 77.2V74.8H219.371V77.2H216.651ZM216.651 89.5V78.7H219.371V89.5H216.651ZM225.369 89.8C224.595 89.8 223.939 89.6533 223.399 89.36C222.865 89.06 222.459 88.6633 222.179 88.17C221.905 87.67 221.769 87.12 221.769 86.52C221.769 86.02 221.845 85.5633 221.999 85.15C222.152 84.7367 222.399 84.3733 222.739 84.06C223.085 83.74 223.549 83.4733 224.129 83.26C224.529 83.1133 225.005 82.9833 225.559 82.87C226.112 82.7567 226.739 82.65 227.439 82.55C228.139 82.4433 228.909 82.3267 229.749 82.2L228.769 82.74C228.769 82.1 228.615 81.63 228.309 81.33C228.002 81.03 227.489 80.88 226.769 80.88C226.369 80.88 225.952 80.9767 225.519 81.17C225.085 81.3633 224.782 81.7067 224.609 82.2L222.149 81.42C222.422 80.5267 222.935 79.8 223.689 79.24C224.442 78.68 225.469 78.4 226.769 78.4C227.722 78.4 228.569 78.5467 229.309 78.84C230.049 79.1333 230.609 79.64 230.989 80.36C231.202 80.76 231.329 81.16 231.369 81.56C231.409 81.96 231.429 82.4067 231.429 82.9V89.5H229.049V87.28L229.389 87.74C228.862 88.4667 228.292 88.9933 227.679 89.32C227.072 89.64 226.302 89.8 225.369 89.8ZM225.949 87.66C226.449 87.66 226.869 87.5733 227.209 87.4C227.555 87.22 227.829 87.0167 228.029 86.79C228.235 86.5633 228.375 86.3733 228.449 86.22C228.589 85.9267 228.669 85.5867 228.689 85.2C228.715 84.8067 228.729 84.48 228.729 84.22L229.529 84.42C228.722 84.5533 228.069 84.6667 227.569 84.76C227.069 84.8467 226.665 84.9267 226.359 85C226.052 85.0733 225.782 85.1533 225.549 85.24C225.282 85.3467 225.065 85.4633 224.899 85.59C224.739 85.71 224.619 85.8433 224.539 85.99C224.465 86.1367 224.429 86.3 224.429 86.48C224.429 86.7267 224.489 86.94 224.609 87.12C224.735 87.2933 224.912 87.4267 225.139 87.52C225.365 87.6133 225.635 87.66 225.949 87.66ZM240.509 89.5C239.762 89.64 239.029 89.7 238.309 89.68C237.596 89.6667 236.956 89.5433 236.389 89.31C235.829 89.07 235.402 88.6867 235.109 88.16C234.842 87.6667 234.702 87.1667 234.689 86.66C234.676 86.1467 234.669 85.5667 234.669 84.92V75.7H237.389V84.76C237.389 85.18 237.392 85.56 237.399 85.9C237.412 86.2333 237.482 86.5 237.609 86.7C237.849 87.08 238.232 87.2867 238.759 87.32C239.286 87.3533 239.869 87.3267 240.509 87.24V89.5ZM232.829 80.8V78.7H240.509V80.8H232.829ZM247.19 89.8C246.103 89.8 245.15 89.5567 244.33 89.07C243.51 88.5833 242.87 87.9133 242.41 87.06C241.956 86.2 241.73 85.2133 241.73 84.1C241.73 82.9733 241.963 81.9833 242.43 81.13C242.896 80.27 243.54 79.6 244.36 79.12C245.18 78.64 246.123 78.4 247.19 78.4C248.276 78.4 249.23 78.6433 250.05 79.13C250.876 79.6167 251.52 80.29 251.98 81.15C252.44 82.0033 252.67 82.9867 252.67 84.1C252.67 85.22 252.436 86.21 251.97 87.07C251.51 87.9233 250.866 88.5933 250.04 89.08C249.22 89.56 248.27 89.8 247.19 89.8ZM247.19 87.26C248.063 87.26 248.713 86.9667 249.14 86.38C249.573 85.7867 249.79 85.0267 249.79 84.1C249.79 83.14 249.57 82.3733 249.13 81.8C248.696 81.2267 248.05 80.94 247.19 80.94C246.596 80.94 246.11 81.0733 245.73 81.34C245.35 81.6067 245.066 81.9767 244.88 82.45C244.7 82.9233 244.61 83.4733 244.61 84.1C244.61 85.0667 244.826 85.8367 245.26 86.41C245.7 86.9767 246.343 87.26 247.19 87.26ZM258.796 89.8C257.436 89.8 256.336 89.4933 255.496 88.88C254.662 88.26 254.156 87.3867 253.976 86.26L256.756 85.84C256.869 86.3467 257.119 86.7433 257.506 87.03C257.899 87.3167 258.396 87.46 258.996 87.46C259.489 87.46 259.869 87.3667 260.136 87.18C260.402 86.9867 260.536 86.72 260.536 86.38C260.536 86.1667 260.482 85.9967 260.376 85.87C260.269 85.7367 260.029 85.6067 259.656 85.48C259.289 85.3533 258.716 85.1867 257.936 84.98C257.056 84.7533 256.352 84.5 255.826 84.22C255.299 83.94 254.919 83.6067 254.686 83.22C254.452 82.8267 254.336 82.3533 254.336 81.8C254.336 81.1067 254.512 80.5067 254.866 80C255.219 79.4867 255.716 79.0933 256.356 78.82C257.002 78.54 257.762 78.4 258.636 78.4C259.482 78.4 260.232 78.53 260.886 78.79C261.539 79.05 262.066 79.42 262.466 79.9C262.872 80.38 263.122 80.9467 263.216 81.6L260.436 82.1C260.389 81.7 260.216 81.3833 259.916 81.15C259.616 80.9167 259.209 80.78 258.696 80.74C258.196 80.7067 257.792 80.7733 257.486 80.94C257.186 81.1067 257.036 81.3467 257.036 81.66C257.036 81.8467 257.099 82.0033 257.226 82.13C257.359 82.2567 257.629 82.3867 258.036 82.52C258.449 82.6533 259.076 82.8267 259.916 83.04C260.736 83.2533 261.392 83.5033 261.886 83.79C262.386 84.07 262.749 84.41 262.976 84.81C263.202 85.2033 263.316 85.68 263.316 86.24C263.316 87.3467 262.916 88.2167 262.116 88.85C261.316 89.4833 260.209 89.8 258.796 89.8ZM265.713 89.5V74.8H268.433V89.5H265.713ZM274.431 89.8C273.658 89.8 273.001 89.6533 272.461 89.36C271.928 89.06 271.521 88.6633 271.241 88.17C270.968 87.67 270.831 87.12 270.831 86.52C270.831 86.02 270.908 85.5633 271.061 85.15C271.215 84.7367 271.461 84.3733 271.801 84.06C272.148 83.74 272.611 83.4733 273.191 83.26C273.591 83.1133 274.068 82.9833 274.621 82.87C275.175 82.7567 275.801 82.65 276.501 82.55C277.201 82.4433 277.971 82.3267 278.811 82.2L277.831 82.74C277.831 82.1 277.678 81.63 277.371 81.33C277.065 81.03 276.551 80.88 275.831 80.88C275.431 80.88 275.015 80.9767 274.581 81.17C274.148 81.3633 273.845 81.7067 273.671 82.2L271.211 81.42C271.485 80.5267 271.998 79.8 272.751 79.24C273.505 78.68 274.531 78.4 275.831 78.4C276.785 78.4 277.631 78.5467 278.371 78.84C279.111 79.1333 279.671 79.64 280.051 80.36C280.265 80.76 280.391 81.16 280.431 81.56C280.471 81.96 280.491 82.4067 280.491 82.9V89.5H278.111V87.28L278.451 87.74C277.925 88.4667 277.355 88.9933 276.741 89.32C276.135 89.64 275.365 89.8 274.431 89.8ZM275.011 87.66C275.511 87.66 275.931 87.5733 276.271 87.4C276.618 87.22 276.891 87.0167 277.091 86.79C277.298 86.5633 277.438 86.3733 277.511 86.22C277.651 85.9267 277.731 85.5867 277.751 85.2C277.778 84.8067 277.791 84.48 277.791 84.22L278.591 84.42C277.785 84.5533 277.131 84.6667 276.631 84.76C276.131 84.8467 275.728 84.9267 275.421 85C275.115 85.0733 274.845 85.1533 274.611 85.24C274.345 85.3467 274.128 85.4633 273.961 85.59C273.801 85.71 273.681 85.8433 273.601 85.99C273.528 86.1367 273.491 86.3 273.491 86.48C273.491 86.7267 273.551 86.94 273.671 87.12C273.798 87.2933 273.975 87.4267 274.201 87.52C274.428 87.6133 274.698 87.66 275.011 87.66ZM285.621 89.5L281.701 78.7H284.421L286.981 86.18L289.541 78.7H292.261L288.341 89.5H285.621Z" fill="#C8FF00"/>
<path d="M29.688 111.692C28.824 111.692 28.0187 111.553 27.272 111.276C26.536 110.988 25.896 110.583 25.352 110.06C24.808 109.537 24.3813 108.924 24.072 108.22C23.7733 107.516 23.624 106.743 23.624 105.9C23.624 105.057 23.7733 104.284 24.072 103.58C24.3813 102.876 24.808 102.263 25.352 101.74C25.9067 101.217 26.552 100.817 27.288 100.54C28.024 100.252 28.8293 100.108 29.704 100.108C30.6747 100.108 31.5493 100.279 32.328 100.62C33.1173 100.951 33.7787 101.441 34.312 102.092L32.648 103.628C32.264 103.191 31.8373 102.865 31.368 102.652C30.8987 102.428 30.3867 102.316 29.832 102.316C29.3093 102.316 28.8293 102.401 28.392 102.572C27.9547 102.743 27.576 102.988 27.256 103.308C26.936 103.628 26.6853 104.007 26.504 104.444C26.3333 104.881 26.248 105.367 26.248 105.9C26.248 106.433 26.3333 106.919 26.504 107.356C26.6853 107.793 26.936 108.172 27.256 108.492C27.576 108.812 27.9547 109.057 28.392 109.228C28.8293 109.399 29.3093 109.484 29.832 109.484C30.3867 109.484 30.8987 109.377 31.368 109.164C31.8373 108.94 32.264 108.604 32.648 108.156L34.312 109.692C33.7787 110.343 33.1173 110.839 32.328 111.18C31.5493 111.521 30.6693 111.692 29.688 111.692ZM35.7301 111.5V102.892H38.1141V105.324L37.7781 104.62C38.0341 104.012 38.4448 103.553 39.0101 103.244C39.5755 102.924 40.2635 102.764 41.0741 102.764V105.068C40.9675 105.057 40.8715 105.052 40.7861 105.052C40.7008 105.041 40.6101 105.036 40.5141 105.036C39.8315 105.036 39.2768 105.233 38.8501 105.628C38.4341 106.012 38.2261 106.615 38.2261 107.436V111.5H35.7301ZM46.7678 111.628C45.7864 111.628 44.9224 111.436 44.1758 111.052C43.4398 110.668 42.8691 110.145 42.4638 109.484C42.0584 108.812 41.8558 108.049 41.8558 107.196C41.8558 106.332 42.0531 105.569 42.4478 104.908C42.8531 104.236 43.4024 103.713 44.0958 103.34C44.7891 102.956 45.5731 102.764 46.4478 102.764C47.2904 102.764 48.0478 102.945 48.7198 103.308C49.4024 103.66 49.9411 104.172 50.3358 104.844C50.7304 105.505 50.9278 106.3 50.9278 107.228C50.9278 107.324 50.9224 107.436 50.9118 107.564C50.9011 107.681 50.8904 107.793 50.8798 107.9H43.8878V106.444H49.5677L48.6078 106.876C48.6078 106.428 48.5171 106.039 48.3358 105.708C48.1544 105.377 47.9038 105.121 47.5838 104.94C47.2638 104.748 46.8904 104.652 46.4638 104.652C46.0371 104.652 45.6584 104.748 45.3278 104.94C45.0078 105.121 44.7571 105.383 44.5758 105.724C44.3944 106.055 44.3038 106.449 44.3038 106.908V107.292C44.3038 107.761 44.4051 108.177 44.6078 108.54C44.8211 108.892 45.1144 109.164 45.4878 109.356C45.8718 109.537 46.3198 109.628 46.8318 109.628C47.2904 109.628 47.6904 109.559 48.0318 109.42C48.3838 109.281 48.7038 109.073 48.9918 108.796L50.3198 110.236C49.9251 110.684 49.4291 111.031 48.8318 111.276C48.2344 111.511 47.5464 111.628 46.7678 111.628ZM57.6351 111.5V109.82L57.4751 109.452V106.444C57.4751 105.911 57.3098 105.495 56.9791 105.196C56.6591 104.897 56.1631 104.748 55.4911 104.748C55.0325 104.748 54.5791 104.823 54.1311 104.972C53.6938 105.111 53.3205 105.303 53.0111 105.548L52.1151 103.804C52.5845 103.473 53.1498 103.217 53.8111 103.036C54.4725 102.855 55.1445 102.764 55.8271 102.764C57.1391 102.764 58.1578 103.073 58.8831 103.692C59.6085 104.311 59.9711 105.276 59.9711 106.588V111.5H57.6351ZM55.0111 111.628C54.3391 111.628 53.7631 111.516 53.2831 111.292C52.8031 111.057 52.4351 110.743 52.1791 110.348C51.9231 109.953 51.7951 109.511 51.7951 109.02C51.7951 108.508 51.9178 108.06 52.1631 107.676C52.4191 107.292 52.8191 106.993 53.3631 106.78C53.9071 106.556 54.6165 106.444 55.4911 106.444H57.7791V107.9H55.7631C55.1765 107.9 54.7711 107.996 54.5471 108.188C54.3338 108.38 54.2271 108.62 54.2271 108.908C54.2271 109.228 54.3498 109.484 54.5951 109.676C54.8511 109.857 55.1978 109.948 55.6351 109.948C56.0511 109.948 56.4245 109.852 56.7551 109.66C57.0858 109.457 57.3258 109.164 57.4751 108.78L57.8591 109.932C57.6778 110.487 57.3471 110.908 56.8671 111.196C56.3871 111.484 55.7685 111.628 55.0111 111.628ZM65.7501 111.628C64.7368 111.628 63.9475 111.372 63.3821 110.86C62.8168 110.337 62.5341 109.564 62.5341 108.54V100.988H65.0301V108.508C65.0301 108.871 65.1261 109.153 65.3181 109.356C65.5101 109.548 65.7715 109.644 66.1021 109.644C66.4968 109.644 66.8328 109.537 67.1101 109.324L67.7821 111.084C67.5261 111.265 67.2168 111.404 66.8541 111.5C66.5021 111.585 66.1341 111.628 65.7501 111.628ZM61.2061 104.812V102.892H67.1741V104.812H61.2061ZM69.1833 111.5V102.892H71.6793V111.5H69.1833ZM70.4313 101.692C69.9726 101.692 69.5993 101.559 69.3113 101.292C69.0233 101.025 68.8793 100.695 68.8793 100.3C68.8793 99.9053 69.0233 99.5747 69.3113 99.308C69.5993 99.0413 69.9726 98.908 70.4313 98.908C70.8899 98.908 71.2633 99.036 71.5513 99.292C71.8393 99.5373 71.9833 99.8573 71.9833 100.252C71.9833 100.668 71.8393 101.015 71.5513 101.292C71.2739 101.559 70.9006 101.692 70.4313 101.692ZM73.9958 111.5V102.892H76.3798V105.276L75.9318 104.556C76.2411 103.98 76.6838 103.537 77.2598 103.228C77.8358 102.919 78.4918 102.764 79.2278 102.764C79.9104 102.764 80.5184 102.903 81.0518 103.18C81.5958 103.447 82.0224 103.863 82.3318 104.428C82.6411 104.983 82.7958 105.697 82.7958 106.572V111.5H80.2998V106.956C80.2998 106.263 80.1451 105.751 79.8358 105.42C79.5371 105.089 79.1104 104.924 78.5558 104.924C78.1611 104.924 77.8038 105.009 77.4838 105.18C77.1744 105.34 76.9291 105.591 76.7478 105.932C76.5771 106.273 76.4918 106.711 76.4918 107.244V111.5H73.9958ZM89.1688 114.732C88.3581 114.732 87.5741 114.631 86.8168 114.428C86.0701 114.236 85.4461 113.943 84.9448 113.548L85.9368 111.756C86.2994 112.055 86.7581 112.289 87.3128 112.46C87.8781 112.641 88.4328 112.732 88.9768 112.732C89.8621 112.732 90.5021 112.535 90.8968 112.14C91.3021 111.745 91.5048 111.159 91.5048 110.38V109.084L91.6648 106.924L91.6328 104.748V102.892H94.0008V110.06C94.0008 111.66 93.5848 112.839 92.7528 113.596C91.9208 114.353 90.7261 114.732 89.1688 114.732ZM88.7848 111.084C87.9848 111.084 87.2594 110.913 86.6088 110.572C85.9688 110.22 85.4514 109.735 85.0568 109.116C84.6728 108.487 84.4808 107.756 84.4808 106.924C84.4808 106.081 84.6728 105.351 85.0568 104.732C85.4514 104.103 85.9688 103.617 86.6088 103.276C87.2594 102.935 87.9848 102.764 88.7848 102.764C89.5101 102.764 90.1501 102.913 90.7048 103.212C91.2594 103.5 91.6914 103.953 92.0008 104.572C92.3101 105.18 92.4648 105.964 92.4648 106.924C92.4648 107.873 92.3101 108.657 92.0008 109.276C91.6914 109.884 91.2594 110.337 90.7048 110.636C90.1501 110.935 89.5101 111.084 88.7848 111.084ZM89.2808 109.036C89.7181 109.036 90.1074 108.951 90.4488 108.78C90.7901 108.599 91.0568 108.348 91.2488 108.028C91.4408 107.708 91.5368 107.34 91.5368 106.924C91.5368 106.497 91.4408 106.129 91.2488 105.82C91.0568 105.5 90.7901 105.255 90.4488 105.084C90.1074 104.903 89.7181 104.812 89.2808 104.812C88.8434 104.812 88.4541 104.903 88.1128 105.084C87.7714 105.255 87.4994 105.5 87.2968 105.82C87.1048 106.129 87.0088 106.497 87.0088 106.924C87.0088 107.34 87.1048 107.708 87.2968 108.028C87.4994 108.348 87.7714 108.599 88.1128 108.78C88.4541 108.951 88.8434 109.036 89.2808 109.036ZM100.855 111.5V99.628H103.351V105.276L102.791 104.556C103.1 103.98 103.543 103.537 104.119 103.228C104.695 102.919 105.351 102.764 106.087 102.764C106.77 102.764 107.378 102.903 107.911 103.18C108.455 103.447 108.882 103.863 109.191 104.428C109.5 104.983 109.655 105.697 109.655 106.572V111.5H107.159V106.956C107.159 106.263 107.004 105.751 106.695 105.42C106.396 105.089 105.97 104.924 105.415 104.924C105.02 104.924 104.663 105.009 104.343 105.18C104.034 105.34 103.788 105.591 103.607 105.932C103.436 106.273 103.351 106.711 103.351 107.244V111.5H100.855ZM111.918 111.5V102.892H114.414V111.5H111.918ZM113.166 101.692C112.707 101.692 112.334 101.559 112.046 101.292C111.758 101.025 111.614 100.695 111.614 100.3C111.614 99.9053 111.758 99.5747 112.046 99.308C112.334 99.0413 112.707 98.908 113.166 98.908C113.624 98.908 113.998 99.036 114.286 99.292C114.574 99.5373 114.718 99.8573 114.718 100.252C114.718 100.668 114.574 101.015 114.286 101.292C114.008 101.559 113.635 101.692 113.166 101.692ZM120.778 114.732C119.967 114.732 119.183 114.631 118.426 114.428C117.679 114.236 117.055 113.943 116.554 113.548L117.546 111.756C117.909 112.055 118.367 112.289 118.922 112.46C119.487 112.641 120.042 112.732 120.586 112.732C121.471 112.732 122.111 112.535 122.506 112.14C122.911 111.745 123.114 111.159 123.114 110.38V109.084L123.274 106.924L123.242 104.748V102.892H125.61V110.06C125.61 111.66 125.194 112.839 124.362 113.596C123.53 114.353 122.335 114.732 120.778 114.732ZM120.394 111.084C119.594 111.084 118.869 110.913 118.218 110.572C117.578 110.22 117.061 109.735 116.666 109.116C116.282 108.487 116.09 107.756 116.09 106.924C116.09 106.081 116.282 105.351 116.666 104.732C117.061 104.103 117.578 103.617 118.218 103.276C118.869 102.935 119.594 102.764 120.394 102.764C121.119 102.764 121.759 102.913 122.314 103.212C122.869 103.5 123.301 103.953 123.61 104.572C123.919 105.18 124.074 105.964 124.074 106.924C124.074 107.873 123.919 108.657 123.61 109.276C123.301 109.884 122.869 110.337 122.314 110.636C121.759 110.935 121.119 111.084 120.394 111.084ZM120.89 109.036C121.327 109.036 121.717 108.951 122.058 108.78C122.399 108.599 122.666 108.348 122.858 108.028C123.05 107.708 123.146 107.34 123.146 106.924C123.146 106.497 123.05 106.129 122.858 105.82C122.666 105.5 122.399 105.255 122.058 105.084C121.717 104.903 121.327 104.812 120.89 104.812C120.453 104.812 120.063 104.903 119.722 105.084C119.381 105.255 119.109 105.5 118.906 105.82C118.714 106.129 118.618 106.497 118.618 106.924C118.618 107.34 118.714 107.708 118.906 108.028C119.109 108.348 119.381 108.599 119.722 108.78C120.063 108.951 120.453 109.036 120.89 109.036ZM127.933 111.5V99.628H130.429V105.276L129.869 104.556C130.179 103.98 130.621 103.537 131.197 103.228C131.773 102.919 132.429 102.764 133.165 102.764C133.848 102.764 134.456 102.903 134.989 103.18C135.533 103.447 135.96 103.863 136.269 104.428C136.579 104.983 136.733 105.697 136.733 106.572V111.5H134.237V106.956C134.237 106.263 134.083 105.751 133.773 105.42C133.475 105.089 133.048 104.924 132.493 104.924C132.099 104.924 131.741 105.009 131.421 105.18C131.112 105.34 130.867 105.591 130.685 105.932C130.515 106.273 130.429 106.711 130.429 107.244V111.5H127.933ZM138.676 107.996V105.996H143.204V107.996H138.676ZM149.596 111.628C148.615 111.628 147.751 111.436 147.004 111.052C146.268 110.668 145.697 110.145 145.292 109.484C144.887 108.812 144.684 108.049 144.684 107.196C144.684 106.332 144.881 105.569 145.276 104.908C145.681 104.236 146.231 103.713 146.924 103.34C147.617 102.956 148.401 102.764 149.276 102.764C150.119 102.764 150.876 102.945 151.548 103.308C152.231 103.66 152.769 104.172 153.164 104.844C153.559 105.505 153.756 106.3 153.756 107.228C153.756 107.324 153.751 107.436 153.74 107.564C153.729 107.681 153.719 107.793 153.708 107.9H146.716V106.444H152.396L151.436 106.876C151.436 106.428 151.345 106.039 151.164 105.708C150.983 105.377 150.732 105.121 150.412 104.94C150.092 104.748 149.719 104.652 149.292 104.652C148.865 104.652 148.487 104.748 148.156 104.94C147.836 105.121 147.585 105.383 147.404 105.724C147.223 106.055 147.132 106.449 147.132 106.908V107.292C147.132 107.761 147.233 108.177 147.436 108.54C147.649 108.892 147.943 109.164 148.316 109.356C148.7 109.537 149.148 109.628 149.66 109.628C150.119 109.628 150.519 109.559 150.86 109.42C151.212 109.281 151.532 109.073 151.82 108.796L153.148 110.236C152.753 110.684 152.257 111.031 151.66 111.276C151.063 111.511 150.375 111.628 149.596 111.628ZM155.418 111.5V102.892H157.802V105.276L157.354 104.556C157.663 103.98 158.106 103.537 158.682 103.228C159.258 102.919 159.914 102.764 160.65 102.764C161.332 102.764 161.94 102.903 162.474 103.18C163.018 103.447 163.444 103.863 163.754 104.428C164.063 104.983 164.218 105.697 164.218 106.572V111.5H161.722V106.956C161.722 106.263 161.567 105.751 161.258 105.42C160.959 105.089 160.532 104.924 159.978 104.924C159.583 104.924 159.226 105.009 158.906 105.18C158.596 105.34 158.351 105.591 158.17 105.932C157.999 106.273 157.914 106.711 157.914 107.244V111.5H155.418ZM170.239 111.628C169.428 111.628 168.697 111.447 168.047 111.084C167.396 110.711 166.879 110.193 166.495 109.532C166.121 108.871 165.935 108.092 165.935 107.196C165.935 106.289 166.121 105.505 166.495 104.844C166.879 104.183 167.396 103.671 168.047 103.308C168.697 102.945 169.428 102.764 170.239 102.764C170.964 102.764 171.599 102.924 172.143 103.244C172.687 103.564 173.108 104.049 173.407 104.7C173.705 105.351 173.855 106.183 173.855 107.196C173.855 108.199 173.711 109.031 173.423 109.692C173.135 110.343 172.719 110.828 172.175 111.148C171.641 111.468 170.996 111.628 170.239 111.628ZM170.671 109.58C171.076 109.58 171.444 109.484 171.775 109.292C172.105 109.1 172.367 108.828 172.559 108.476C172.761 108.113 172.863 107.687 172.863 107.196C172.863 106.695 172.761 106.268 172.559 105.916C172.367 105.564 172.105 105.292 171.775 105.1C171.444 104.908 171.076 104.812 170.671 104.812C170.255 104.812 169.881 104.908 169.551 105.1C169.22 105.292 168.953 105.564 168.751 105.916C168.559 106.268 168.463 106.695 168.463 107.196C168.463 107.687 168.559 108.113 168.751 108.476C168.953 108.828 169.22 109.1 169.551 109.292C169.881 109.484 170.255 109.58 170.671 109.58ZM172.927 111.5V109.74L172.975 107.18L172.815 104.636V99.628H175.311V111.5H172.927ZM184.12 111.5L181.016 102.892H183.368L185.944 110.3H184.824L187.512 102.892H189.624L192.232 110.3H191.112L193.768 102.892H195.976L192.856 111.5H190.44L188.152 105.148H188.888L186.52 111.5H184.12ZM201.174 111.628C200.193 111.628 199.329 111.436 198.582 111.052C197.846 110.668 197.275 110.145 196.87 109.484C196.465 108.812 196.262 108.049 196.262 107.196C196.262 106.332 196.459 105.569 196.854 104.908C197.259 104.236 197.809 103.713 198.502 103.34C199.195 102.956 199.979 102.764 200.854 102.764C201.697 102.764 202.454 102.945 203.126 103.308C203.809 103.66 204.347 104.172 204.742 104.844C205.137 105.505 205.334 106.3 205.334 107.228C205.334 107.324 205.329 107.436 205.318 107.564C205.307 107.681 205.297 107.793 205.286 107.9H198.294V106.444H203.974L203.014 106.876C203.014 106.428 202.923 106.039 202.742 105.708C202.561 105.377 202.31 105.121 201.99 104.94C201.67 104.748 201.297 104.652 200.87 104.652C200.443 104.652 200.065 104.748 199.734 104.94C199.414 105.121 199.163 105.383 198.982 105.724C198.801 106.055 198.71 106.449 198.71 106.908V107.292C198.71 107.761 198.811 108.177 199.014 108.54C199.227 108.892 199.521 109.164 199.894 109.356C200.278 109.537 200.726 109.628 201.238 109.628C201.697 109.628 202.097 109.559 202.438 109.42C202.79 109.281 203.11 109.073 203.398 108.796L204.726 110.236C204.331 110.684 203.835 111.031 203.238 111.276C202.641 111.511 201.953 111.628 201.174 111.628ZM212.084 111.628C211.326 111.628 210.676 111.468 210.132 111.148C209.588 110.828 209.172 110.343 208.884 109.692C208.596 109.031 208.452 108.199 208.452 107.196C208.452 106.183 208.601 105.351 208.9 104.7C209.209 104.049 209.636 103.564 210.18 103.244C210.724 102.924 211.358 102.764 212.084 102.764C212.894 102.764 213.62 102.945 214.26 103.308C214.91 103.671 215.422 104.183 215.796 104.844C216.18 105.505 216.372 106.289 216.372 107.196C216.372 108.092 216.18 108.871 215.796 109.532C215.422 110.193 214.91 110.711 214.26 111.084C213.62 111.447 212.894 111.628 212.084 111.628ZM206.996 111.5V99.628H209.492V104.636L209.332 107.18L209.38 109.74V111.5H206.996ZM211.652 109.58C212.068 109.58 212.436 109.484 212.756 109.292C213.086 109.1 213.348 108.828 213.54 108.476C213.742 108.113 213.844 107.687 213.844 107.196C213.844 106.695 213.742 106.268 213.54 105.916C213.348 105.564 213.086 105.292 212.756 105.1C212.436 104.908 212.068 104.812 211.652 104.812C211.236 104.812 210.862 104.908 210.532 105.1C210.201 105.292 209.94 105.564 209.748 105.916C209.556 106.268 209.46 106.695 209.46 107.196C209.46 107.687 209.556 108.113 209.748 108.476C209.94 108.828 210.201 109.1 210.532 109.292C210.862 109.484 211.236 109.58 211.652 109.58ZM227.854 111.5V109.82L227.694 109.452V106.444C227.694 105.911 227.529 105.495 227.198 105.196C226.878 104.897 226.382 104.748 225.71 104.748C225.251 104.748 224.798 104.823 224.35 104.972C223.913 105.111 223.539 105.303 223.23 105.548L222.334 103.804C222.803 103.473 223.369 103.217 224.03 103.036C224.691 102.855 225.363 102.764 226.046 102.764C227.358 102.764 228.377 103.073 229.102 103.692C229.827 104.311 230.19 105.276 230.19 106.588V111.5H227.854ZM225.23 111.628C224.558 111.628 223.982 111.516 223.502 111.292C223.022 111.057 222.654 110.743 222.398 110.348C222.142 109.953 222.014 109.511 222.014 109.02C222.014 108.508 222.137 108.06 222.382 107.676C222.638 107.292 223.038 106.993 223.582 106.78C224.126 106.556 224.835 106.444 225.71 106.444H227.998V107.9H225.982C225.395 107.9 224.99 107.996 224.766 108.188C224.553 108.38 224.446 108.62 224.446 108.908C224.446 109.228 224.569 109.484 224.814 109.676C225.07 109.857 225.417 109.948 225.854 109.948C226.27 109.948 226.643 109.852 226.974 109.66C227.305 109.457 227.545 109.164 227.694 108.78L228.078 109.932C227.897 110.487 227.566 110.908 227.086 111.196C226.606 111.484 225.987 111.628 225.23 111.628ZM237.537 111.628C236.812 111.628 236.177 111.468 235.633 111.148C235.089 110.828 234.662 110.343 234.353 109.692C234.054 109.031 233.905 108.199 233.905 107.196C233.905 106.183 234.049 105.351 234.337 104.7C234.625 104.049 235.041 103.564 235.585 103.244C236.129 102.924 236.78 102.764 237.537 102.764C238.348 102.764 239.073 102.951 239.713 103.324C240.364 103.687 240.876 104.199 241.249 104.86C241.633 105.521 241.825 106.3 241.825 107.196C241.825 108.103 241.633 108.887 241.249 109.548C240.876 110.209 240.364 110.721 239.713 111.084C239.073 111.447 238.348 111.628 237.537 111.628ZM232.449 114.604V102.892H234.833V104.652L234.785 107.212L234.945 109.756V114.604H232.449ZM237.105 109.58C237.521 109.58 237.889 109.484 238.209 109.292C238.54 109.1 238.801 108.828 238.993 108.476C239.196 108.113 239.297 107.687 239.297 107.196C239.297 106.695 239.196 106.268 238.993 105.916C238.801 105.564 238.54 105.292 238.209 105.1C237.889 104.908 237.521 104.812 237.105 104.812C236.689 104.812 236.316 104.908 235.985 105.1C235.654 105.292 235.393 105.564 235.201 105.916C235.009 106.268 234.913 106.695 234.913 107.196C234.913 107.687 235.009 108.113 235.201 108.476C235.393 108.828 235.654 109.1 235.985 109.292C236.316 109.484 236.689 109.58 237.105 109.58ZM248.584 111.628C247.858 111.628 247.224 111.468 246.68 111.148C246.136 110.828 245.709 110.343 245.4 109.692C245.101 109.031 244.952 108.199 244.952 107.196C244.952 106.183 245.096 105.351 245.384 104.7C245.672 104.049 246.088 103.564 246.632 103.244C247.176 102.924 247.826 102.764 248.584 102.764C249.394 102.764 250.12 102.951 250.76 103.324C251.41 103.687 251.922 104.199 252.296 104.86C252.68 105.521 252.872 106.3 252.872 107.196C252.872 108.103 252.68 108.887 252.296 109.548C251.922 110.209 251.41 110.721 250.76 111.084C250.12 111.447 249.394 111.628 248.584 111.628ZM243.496 114.604V102.892H245.88V104.652L245.832 107.212L245.992 109.756V114.604H243.496ZM248.152 109.58C248.568 109.58 248.936 109.484 249.256 109.292C249.586 109.1 249.848 108.828 250.04 108.476C250.242 108.113 250.344 107.687 250.344 107.196C250.344 106.695 250.242 106.268 250.04 105.916C249.848 105.564 249.586 105.292 249.256 105.1C248.936 104.908 248.568 104.812 248.152 104.812C247.736 104.812 247.362 104.908 247.032 105.1C246.701 105.292 246.44 105.564 246.248 105.916C246.056 106.268 245.96 106.695 245.96 107.196C245.96 107.687 246.056 108.113 246.248 108.476C246.44 108.828 246.701 109.1 247.032 109.292C247.362 109.484 247.736 109.58 248.152 109.58ZM254.543 111.5V99.628H257.039V111.5H254.543ZM259.355 111.5V102.892H261.851V111.5H259.355ZM260.603 101.692C260.144 101.692 259.771 101.559 259.483 101.292C259.195 101.025 259.051 100.695 259.051 100.3C259.051 99.9053 259.195 99.5747 259.483 99.308C259.771 99.0413 260.144 98.908 260.603 98.908C261.062 98.908 261.435 99.036 261.723 99.292C262.011 99.5373 262.155 99.8573 262.155 100.252C262.155 100.668 262.011 101.015 261.723 101.292C261.446 101.559 261.072 101.692 260.603 101.692ZM268.328 111.628C267.4 111.628 266.573 111.441 265.848 111.068C265.122 110.684 264.552 110.156 264.136 109.484C263.73 108.812 263.528 108.049 263.528 107.196C263.528 106.332 263.73 105.569 264.136 104.908C264.552 104.236 265.122 103.713 265.848 103.34C266.573 102.956 267.4 102.764 268.328 102.764C269.234 102.764 270.024 102.956 270.696 103.34C271.368 103.713 271.864 104.252 272.184 104.956L270.248 105.996C270.024 105.591 269.741 105.292 269.4 105.1C269.069 104.908 268.706 104.812 268.312 104.812C267.885 104.812 267.501 104.908 267.16 105.1C266.818 105.292 266.546 105.564 266.344 105.916C266.152 106.268 266.056 106.695 266.056 107.196C266.056 107.697 266.152 108.124 266.344 108.476C266.546 108.828 266.818 109.1 267.16 109.292C267.501 109.484 267.885 109.58 268.312 109.58C268.706 109.58 269.069 109.489 269.4 109.308C269.741 109.116 270.024 108.812 270.248 108.396L272.184 109.452C271.864 110.145 271.368 110.684 270.696 111.068C270.024 111.441 269.234 111.628 268.328 111.628ZM278.901 111.5V109.82L278.741 109.452V106.444C278.741 105.911 278.575 105.495 278.245 105.196C277.925 104.897 277.429 104.748 276.757 104.748C276.298 104.748 275.845 104.823 275.397 104.972C274.959 105.111 274.586 105.303 274.277 105.548L273.381 103.804C273.85 103.473 274.415 103.217 275.077 103.036C275.738 102.855 276.41 102.764 277.093 102.764C278.405 102.764 279.423 103.073 280.149 103.692C280.874 104.311 281.237 105.276 281.237 106.588V111.5H278.901ZM276.277 111.628C275.605 111.628 275.029 111.516 274.549 111.292C274.069 111.057 273.701 110.743 273.445 110.348C273.189 109.953 273.061 109.511 273.061 109.02C273.061 108.508 273.183 108.06 273.429 107.676C273.685 107.292 274.085 106.993 274.629 106.78C275.173 106.556 275.882 106.444 276.757 106.444H279.045V107.9H277.029C276.442 107.9 276.037 107.996 275.813 108.188C275.599 108.38 275.493 108.62 275.493 108.908C275.493 109.228 275.615 109.484 275.861 109.676C276.117 109.857 276.463 109.948 276.901 109.948C277.317 109.948 277.69 109.852 278.021 109.66C278.351 109.457 278.591 109.164 278.741 108.78L279.125 109.932C278.943 110.487 278.613 110.908 278.133 111.196C277.653 111.484 277.034 111.628 276.277 111.628ZM287.016 111.628C286.002 111.628 285.213 111.372 284.648 110.86C284.082 110.337 283.8 109.564 283.8 108.54V100.988H286.296V108.508C286.296 108.871 286.392 109.153 286.584 109.356C286.776 109.548 287.037 109.644 287.368 109.644C287.762 109.644 288.098 109.537 288.376 109.324L289.048 111.084C288.792 111.265 288.482 111.404 288.12 111.5C287.768 111.585 287.4 111.628 287.016 111.628ZM282.472 104.812V102.892H288.44V104.812H282.472ZM290.449 111.5V102.892H292.945V111.5H290.449ZM291.697 101.692C291.238 101.692 290.865 101.559 290.577 101.292C290.289 101.025 290.145 100.695 290.145 100.3C290.145 99.9053 290.289 99.5747 290.577 99.308C290.865 99.0413 291.238 98.908 291.697 98.908C292.156 98.908 292.529 99.036 292.817 99.292C293.105 99.5373 293.249 99.8573 293.249 100.252C293.249 100.668 293.105 101.015 292.817 101.292C292.54 101.559 292.166 101.692 291.697 101.692ZM299.357 111.628C298.44 111.628 297.624 111.436 296.909 111.052C296.205 110.668 295.645 110.145 295.229 109.484C294.824 108.812 294.621 108.049 294.621 107.196C294.621 106.332 294.824 105.569 295.229 104.908C295.645 104.236 296.205 103.713 296.909 103.34C297.624 102.956 298.44 102.764 299.357 102.764C300.264 102.764 301.075 102.956 301.789 103.34C302.504 103.713 303.064 104.231 303.469 104.892C303.875 105.553 304.077 106.321 304.077 107.196C304.077 108.049 303.875 108.812 303.469 109.484C303.064 110.145 302.504 110.668 301.789 111.052C301.075 111.436 300.264 111.628 299.357 111.628ZM299.357 109.58C299.773 109.58 300.147 109.484 300.477 109.292C300.808 109.1 301.069 108.828 301.261 108.476C301.453 108.113 301.549 107.687 301.549 107.196C301.549 106.695 301.453 106.268 301.261 105.916C301.069 105.564 300.808 105.292 300.477 105.1C300.147 104.908 299.773 104.812 299.357 104.812C298.941 104.812 298.568 104.908 298.237 105.1C297.907 105.292 297.64 105.564 297.437 105.916C297.245 106.268 297.149 106.695 297.149 107.196C297.149 107.687 297.245 108.113 297.437 108.476C297.64 108.828 297.907 109.1 298.237 109.292C298.568 109.484 298.941 109.58 299.357 109.58ZM305.746 111.5V102.892H308.13V105.276L307.682 104.556C307.991 103.98 308.434 103.537 309.01 103.228C309.586 102.919 310.242 102.764 310.978 102.764C311.66 102.764 312.268 102.903 312.802 103.18C313.346 103.447 313.772 103.863 314.082 104.428C314.391 104.983 314.546 105.697 314.546 106.572V111.5H312.05V106.956C312.05 106.263 311.895 105.751 311.586 105.42C311.287 105.089 310.86 104.924 310.306 104.924C309.911 104.924 309.554 105.009 309.234 105.18C308.924 105.34 308.679 105.591 308.498 105.932C308.327 106.273 308.242 106.711 308.242 107.244V111.5H305.746ZM319.704 111.628C318.968 111.628 318.259 111.543 317.576 111.372C316.904 111.191 316.371 110.967 315.976 110.7L316.808 108.908C317.203 109.153 317.667 109.356 318.2 109.516C318.744 109.665 319.278 109.74 319.8 109.74C320.376 109.74 320.782 109.671 321.016 109.532C321.262 109.393 321.384 109.201 321.384 108.956C321.384 108.753 321.288 108.604 321.096 108.508C320.915 108.401 320.67 108.321 320.36 108.268C320.051 108.215 319.71 108.161 319.336 108.108C318.974 108.055 318.606 107.985 318.232 107.9C317.859 107.804 317.518 107.665 317.208 107.484C316.899 107.303 316.648 107.057 316.456 106.748C316.275 106.439 316.184 106.039 316.184 105.548C316.184 105.004 316.339 104.524 316.648 104.108C316.968 103.692 317.427 103.367 318.024 103.132C318.622 102.887 319.336 102.764 320.168 102.764C320.755 102.764 321.352 102.828 321.96 102.956C322.568 103.084 323.075 103.271 323.48 103.516L322.648 105.292C322.232 105.047 321.811 104.881 321.384 104.796C320.968 104.7 320.563 104.652 320.168 104.652C319.614 104.652 319.208 104.727 318.952 104.876C318.696 105.025 318.568 105.217 318.568 105.452C318.568 105.665 318.659 105.825 318.84 105.932C319.032 106.039 319.283 106.124 319.592 106.188C319.902 106.252 320.238 106.311 320.6 106.364C320.974 106.407 321.347 106.476 321.72 106.572C322.094 106.668 322.43 106.807 322.728 106.988C323.038 107.159 323.288 107.399 323.48 107.708C323.672 108.007 323.768 108.401 323.768 108.892C323.768 109.425 323.608 109.9 323.288 110.316C322.968 110.721 322.504 111.041 321.896 111.276C321.299 111.511 320.568 111.628 319.704 111.628ZM324.876 113.964L325.932 110.124L326.284 111.564C325.826 111.564 325.447 111.431 325.148 111.164C324.86 110.897 324.716 110.529 324.716 110.06C324.716 109.591 324.866 109.217 325.164 108.94C325.463 108.663 325.831 108.524 326.268 108.524C326.716 108.524 327.084 108.668 327.372 108.956C327.66 109.233 327.804 109.601 327.804 110.06C327.804 110.199 327.794 110.337 327.772 110.476C327.751 110.604 327.708 110.764 327.644 110.956C327.591 111.137 327.5 111.372 327.372 111.66L326.46 113.964H324.876ZM338.075 114.732C337.264 114.732 336.48 114.631 335.723 114.428C334.976 114.236 334.352 113.943 333.851 113.548L334.843 111.756C335.206 112.055 335.664 112.289 336.219 112.46C336.784 112.641 337.339 112.732 337.883 112.732C338.768 112.732 339.408 112.535 339.803 112.14C340.208 111.745 340.411 111.159 340.411 110.38V109.084L340.571 106.924L340.539 104.748V102.892H342.907V110.06C342.907 111.66 342.491 112.839 341.659 113.596C340.827 114.353 339.632 114.732 338.075 114.732ZM337.691 111.084C336.891 111.084 336.166 110.913 335.515 110.572C334.875 110.22 334.358 109.735 333.963 109.116C333.579 108.487 333.387 107.756 333.387 106.924C333.387 106.081 333.579 105.351 333.963 104.732C334.358 104.103 334.875 103.617 335.515 103.276C336.166 102.935 336.891 102.764 337.691 102.764C338.416 102.764 339.056 102.913 339.611 103.212C340.166 103.5 340.598 103.953 340.907 104.572C341.216 105.18 341.371 105.964 341.371 106.924C341.371 107.873 341.216 108.657 340.907 109.276C340.598 109.884 340.166 110.337 339.611 110.636C339.056 110.935 338.416 111.084 337.691 111.084ZM338.187 109.036C338.624 109.036 339.014 108.951 339.355 108.78C339.696 108.599 339.963 108.348 340.155 108.028C340.347 107.708 340.443 107.34 340.443 106.924C340.443 106.497 340.347 106.129 340.155 105.82C339.963 105.5 339.696 105.255 339.355 105.084C339.014 104.903 338.624 104.812 338.187 104.812C337.75 104.812 337.36 104.903 337.019 105.084C336.678 105.255 336.406 105.5 336.203 105.82C336.011 106.129 335.915 106.497 335.915 106.924C335.915 107.34 336.011 107.708 336.203 108.028C336.406 108.348 336.678 108.599 337.019 108.78C337.36 108.951 337.75 109.036 338.187 109.036ZM345.23 111.5V102.892H347.614V105.324L347.278 104.62C347.534 104.012 347.945 103.553 348.51 103.244C349.075 102.924 349.763 102.764 350.574 102.764V105.068C350.467 105.057 350.371 105.052 350.286 105.052C350.201 105.041 350.11 105.036 350.014 105.036C349.331 105.036 348.777 105.233 348.35 105.628C347.934 106.012 347.726 106.615 347.726 107.436V111.5H345.23ZM356.776 111.5V109.82L356.616 109.452V106.444C356.616 105.911 356.45 105.495 356.12 105.196C355.8 104.897 355.304 104.748 354.632 104.748C354.173 104.748 353.72 104.823 353.272 104.972C352.834 105.111 352.461 105.303 352.152 105.548L351.256 103.804C351.725 103.473 352.29 103.217 352.952 103.036C353.613 102.855 354.285 102.764 354.968 102.764C356.28 102.764 357.298 103.073 358.024 103.692C358.749 104.311 359.112 105.276 359.112 106.588V111.5H356.776ZM354.152 111.628C353.48 111.628 352.904 111.516 352.424 111.292C351.944 111.057 351.576 110.743 351.32 110.348C351.064 109.953 350.936 109.511 350.936 109.02C350.936 108.508 351.058 108.06 351.304 107.676C351.56 107.292 351.96 106.993 352.504 106.78C353.048 106.556 353.757 106.444 354.632 106.444H356.92V107.9H354.904C354.317 107.9 353.912 107.996 353.688 108.188C353.474 108.38 353.368 108.62 353.368 108.908C353.368 109.228 353.49 109.484 353.736 109.676C353.992 109.857 354.338 109.948 354.776 109.948C355.192 109.948 355.565 109.852 355.896 109.66C356.226 109.457 356.466 109.164 356.616 108.78L357 109.932C356.818 110.487 356.488 110.908 356.008 111.196C355.528 111.484 354.909 111.628 354.152 111.628ZM366.459 111.628C365.733 111.628 365.099 111.468 364.555 111.148C364.011 110.828 363.584 110.343 363.275 109.692C362.976 109.031 362.827 108.199 362.827 107.196C362.827 106.183 362.971 105.351 363.259 104.7C363.547 104.049 363.963 103.564 364.507 103.244C365.051 102.924 365.701 102.764 366.459 102.764C367.269 102.764 367.995 102.951 368.635 103.324C369.285 103.687 369.797 104.199 370.171 104.86C370.555 105.521 370.747 106.3 370.747 107.196C370.747 108.103 370.555 108.887 370.171 109.548C369.797 110.209 369.285 110.721 368.635 111.084C367.995 111.447 367.269 111.628 366.459 111.628ZM361.371 114.604V102.892H363.755V104.652L363.707 107.212L363.867 109.756V114.604H361.371ZM366.027 109.58C366.443 109.58 366.811 109.484 367.131 109.292C367.461 109.1 367.723 108.828 367.915 108.476C368.117 108.113 368.219 107.687 368.219 107.196C368.219 106.695 368.117 106.268 367.915 105.916C367.723 105.564 367.461 105.292 367.131 105.1C366.811 104.908 366.443 104.812 366.027 104.812C365.611 104.812 365.237 104.908 364.907 105.1C364.576 105.292 364.315 105.564 364.123 105.916C363.931 106.268 363.835 106.695 363.835 107.196C363.835 107.687 363.931 108.113 364.123 108.476C364.315 108.828 364.576 109.1 364.907 109.292C365.237 109.484 365.611 109.58 366.027 109.58ZM372.418 111.5V99.628H374.914V105.276L374.354 104.556C374.663 103.98 375.106 103.537 375.682 103.228C376.258 102.919 376.914 102.764 377.65 102.764C378.332 102.764 378.94 102.903 379.474 103.18C380.018 103.447 380.444 103.863 380.754 104.428C381.063 104.983 381.218 105.697 381.218 106.572V111.5H378.722V106.956C378.722 106.263 378.567 105.751 378.258 105.42C377.959 105.089 377.532 104.924 376.978 104.924C376.583 104.924 376.226 105.009 375.906 105.18C375.596 105.34 375.351 105.591 375.17 105.932C374.999 106.273 374.914 106.711 374.914 107.244V111.5H372.418ZM383.48 111.5V102.892H385.976V111.5H383.48ZM384.728 101.692C384.269 101.692 383.896 101.559 383.608 101.292C383.32 101.025 383.176 100.695 383.176 100.3C383.176 99.9053 383.32 99.5747 383.608 99.308C383.896 99.0413 384.269 98.908 384.728 98.908C385.187 98.908 385.56 99.036 385.848 99.292C386.136 99.5373 386.28 99.8573 386.28 100.252C386.28 100.668 386.136 101.015 385.848 101.292C385.571 101.559 385.197 101.692 384.728 101.692ZM392.453 111.628C391.525 111.628 390.698 111.441 389.973 111.068C389.247 110.684 388.677 110.156 388.261 109.484C387.855 108.812 387.653 108.049 387.653 107.196C387.653 106.332 387.855 105.569 388.261 104.908C388.677 104.236 389.247 103.713 389.973 103.34C390.698 102.956 391.525 102.764 392.453 102.764C393.359 102.764 394.149 102.956 394.821 103.34C395.493 103.713 395.989 104.252 396.309 104.956L394.373 105.996C394.149 105.591 393.866 105.292 393.525 105.1C393.194 104.908 392.831 104.812 392.437 104.812C392.01 104.812 391.626 104.908 391.285 105.1C390.943 105.292 390.671 105.564 390.469 105.916C390.277 106.268 390.181 106.695 390.181 107.196C390.181 107.697 390.277 108.124 390.469 108.476C390.671 108.828 390.943 109.1 391.285 109.292C391.626 109.484 392.01 109.58 392.437 109.58C392.831 109.58 393.194 109.489 393.525 109.308C393.866 109.116 394.149 108.812 394.373 108.396L396.309 109.452C395.989 110.145 395.493 110.684 394.821 111.068C394.149 111.441 393.359 111.628 392.453 111.628ZM405.973 111.628C405.162 111.628 404.432 111.447 403.781 111.084C403.13 110.711 402.613 110.193 402.229 109.532C401.856 108.871 401.669 108.092 401.669 107.196C401.669 106.289 401.856 105.505 402.229 104.844C402.613 104.183 403.13 103.671 403.781 103.308C404.432 102.945 405.162 102.764 405.973 102.764C406.698 102.764 407.333 102.924 407.877 103.244C408.421 103.564 408.842 104.049 409.141 104.7C409.44 105.351 409.589 106.183 409.589 107.196C409.589 108.199 409.445 109.031 409.157 109.692C408.869 110.343 408.453 110.828 407.909 111.148C407.376 111.468 406.73 111.628 405.973 111.628ZM406.405 109.58C406.81 109.58 407.178 109.484 407.509 109.292C407.84 109.1 408.101 108.828 408.293 108.476C408.496 108.113 408.597 107.687 408.597 107.196C408.597 106.695 408.496 106.268 408.293 105.916C408.101 105.564 407.84 105.292 407.509 105.1C407.178 104.908 406.81 104.812 406.405 104.812C405.989 104.812 405.616 104.908 405.285 105.1C404.954 105.292 404.688 105.564 404.485 105.916C404.293 106.268 404.197 106.695 404.197 107.196C404.197 107.687 404.293 108.113 404.485 108.476C404.688 108.828 404.954 109.1 405.285 109.292C405.616 109.484 405.989 109.58 406.405 109.58ZM408.661 111.5V109.74L408.709 107.18L408.549 104.636V99.628H411.045V111.5H408.661ZM417.627 111.628C416.646 111.628 415.782 111.436 415.035 111.052C414.299 110.668 413.728 110.145 413.323 109.484C412.918 108.812 412.715 108.049 412.715 107.196C412.715 106.332 412.912 105.569 413.307 104.908C413.712 104.236 414.262 103.713 414.955 103.34C415.648 102.956 416.432 102.764 417.307 102.764C418.15 102.764 418.907 102.945 419.579 103.308C420.262 103.66 420.8 104.172 421.195 104.844C421.59 105.505 421.787 106.3 421.787 107.228C421.787 107.324 421.782 107.436 421.771 107.564C421.76 107.681 421.75 107.793 421.739 107.9H414.747V106.444H420.427L419.467 106.876C419.467 106.428 419.376 106.039 419.195 105.708C419.014 105.377 418.763 105.121 418.443 104.94C418.123 104.748 417.75 104.652 417.323 104.652C416.896 104.652 416.518 104.748 416.187 104.94C415.867 105.121 415.616 105.383 415.435 105.724C415.254 106.055 415.163 106.449 415.163 106.908V107.292C415.163 107.761 415.264 108.177 415.467 108.54C415.68 108.892 415.974 109.164 416.347 109.356C416.731 109.537 417.179 109.628 417.691 109.628C418.15 109.628 418.55 109.559 418.891 109.42C419.243 109.281 419.563 109.073 419.851 108.796L421.179 110.236C420.784 110.684 420.288 111.031 419.691 111.276C419.094 111.511 418.406 111.628 417.627 111.628ZM426.345 111.628C425.609 111.628 424.9 111.543 424.217 111.372C423.545 111.191 423.012 110.967 422.617 110.7L423.449 108.908C423.844 109.153 424.308 109.356 424.841 109.516C425.385 109.665 425.918 109.74 426.441 109.74C427.017 109.74 427.422 109.671 427.657 109.532C427.902 109.393 428.025 109.201 428.025 108.956C428.025 108.753 427.929 108.604 427.737 108.508C427.556 108.401 427.31 108.321 427.001 108.268C426.692 108.215 426.35 108.161 425.977 108.108C425.614 108.055 425.246 107.985 424.873 107.9C424.5 107.804 424.158 107.665 423.849 107.484C423.54 107.303 423.289 107.057 423.097 106.748C422.916 106.439 422.825 106.039 422.825 105.548C422.825 105.004 422.98 104.524 423.289 104.108C423.609 103.692 424.068 103.367 424.665 103.132C425.262 102.887 425.977 102.764 426.809 102.764C427.396 102.764 427.993 102.828 428.601 102.956C429.209 103.084 429.716 103.271 430.121 103.516L429.289 105.292C428.873 105.047 428.452 104.881 428.025 104.796C427.609 104.7 427.204 104.652 426.809 104.652C426.254 104.652 425.849 104.727 425.593 104.876C425.337 105.025 425.209 105.217 425.209 105.452C425.209 105.665 425.3 105.825 425.481 105.932C425.673 106.039 425.924 106.124 426.233 106.188C426.542 106.252 426.878 106.311 427.241 106.364C427.614 106.407 427.988 106.476 428.361 106.572C428.734 106.668 429.07 106.807 429.369 106.988C429.678 107.159 429.929 107.399 430.121 107.708C430.313 108.007 430.409 108.401 430.409 108.892C430.409 109.425 430.249 109.9 429.929 110.316C429.609 110.721 429.145 111.041 428.537 111.276C427.94 111.511 427.209 111.628 426.345 111.628ZM431.949 111.5V102.892H434.445V111.5H431.949ZM433.197 101.692C432.738 101.692 432.365 101.559 432.077 101.292C431.789 101.025 431.645 100.695 431.645 100.3C431.645 99.9053 431.789 99.5747 432.077 99.308C432.365 99.0413 432.738 98.908 433.197 98.908C433.656 98.908 434.029 99.036 434.317 99.292C434.605 99.5373 434.749 99.8573 434.749 100.252C434.749 100.668 434.605 101.015 434.317 101.292C434.04 101.559 433.666 101.692 433.197 101.692ZM440.809 114.732C439.999 114.732 439.215 114.631 438.457 114.428C437.711 114.236 437.087 113.943 436.585 113.548L437.577 111.756C437.94 112.055 438.399 112.289 438.953 112.46C439.519 112.641 440.073 112.732 440.617 112.732C441.503 112.732 442.143 112.535 442.537 112.14C442.943 111.745 443.145 111.159 443.145 110.38V109.084L443.305 106.924L443.273 104.748V102.892H445.641V110.06C445.641 111.66 445.225 112.839 444.393 113.596C443.561 114.353 442.367 114.732 440.809 114.732ZM440.425 111.084C439.625 111.084 438.9 110.913 438.249 110.572C437.609 110.22 437.092 109.735 436.697 109.116C436.313 108.487 436.121 107.756 436.121 106.924C436.121 106.081 436.313 105.351 436.697 104.732C437.092 104.103 437.609 103.617 438.249 103.276C438.9 102.935 439.625 102.764 440.425 102.764C441.151 102.764 441.791 102.913 442.345 103.212C442.9 103.5 443.332 103.953 443.641 104.572C443.951 105.18 444.105 105.964 444.105 106.924C444.105 107.873 443.951 108.657 443.641 109.276C443.332 109.884 442.9 110.337 442.345 110.636C441.791 110.935 441.151 111.084 440.425 111.084ZM440.921 109.036C441.359 109.036 441.748 108.951 442.089 108.78C442.431 108.599 442.697 108.348 442.889 108.028C443.081 107.708 443.177 107.34 443.177 106.924C443.177 106.497 443.081 106.129 442.889 105.82C442.697 105.5 442.431 105.255 442.089 105.084C441.748 104.903 441.359 104.812 440.921 104.812C440.484 104.812 440.095 104.903 439.753 105.084C439.412 105.255 439.14 105.5 438.937 105.82C438.745 106.129 438.649 106.497 438.649 106.924C438.649 107.34 438.745 107.708 438.937 108.028C439.14 108.348 439.412 108.599 439.753 108.78C440.095 108.951 440.484 109.036 440.921 109.036ZM447.965 111.5V102.892H450.349V105.276L449.901 104.556C450.21 103.98 450.653 103.537 451.229 103.228C451.805 102.919 452.461 102.764 453.197 102.764C453.879 102.764 454.487 102.903 455.021 103.18C455.565 103.447 455.991 103.863 456.301 104.428C456.61 104.983 456.765 105.697 456.765 106.572V111.5H454.269V106.956C454.269 106.263 454.114 105.751 453.805 105.42C453.506 105.089 453.079 104.924 452.525 104.924C452.13 104.924 451.773 105.009 451.453 105.18C451.143 105.34 450.898 105.591 450.717 105.932C450.546 106.273 450.461 106.711 450.461 107.244V111.5H447.965ZM461.923 111.628C461.187 111.628 460.478 111.543 459.795 111.372C459.123 111.191 458.59 110.967 458.195 110.7L459.027 108.908C459.422 109.153 459.886 109.356 460.419 109.516C460.963 109.665 461.496 109.74 462.019 109.74C462.595 109.74 463 109.671 463.235 109.532C463.48 109.393 463.603 109.201 463.603 108.956C463.603 108.753 463.507 108.604 463.315 108.508C463.134 108.401 462.888 108.321 462.579 108.268C462.27 108.215 461.928 108.161 461.555 108.108C461.192 108.055 460.824 107.985 460.451 107.9C460.078 107.804 459.736 107.665 459.427 107.484C459.118 107.303 458.867 107.057 458.675 106.748C458.494 106.439 458.403 106.039 458.403 105.548C458.403 105.004 458.558 104.524 458.867 104.108C459.187 103.692 459.646 103.367 460.243 103.132C460.84 102.887 461.555 102.764 462.387 102.764C462.974 102.764 463.571 102.828 464.179 102.956C464.787 103.084 465.294 103.271 465.699 103.516L464.867 105.292C464.451 105.047 464.03 104.881 463.603 104.796C463.187 104.7 462.782 104.652 462.387 104.652C461.832 104.652 461.427 104.727 461.171 104.876C460.915 105.025 460.787 105.217 460.787 105.452C460.787 105.665 460.878 105.825 461.059 105.932C461.251 106.039 461.502 106.124 461.811 106.188C462.12 106.252 462.456 106.311 462.819 106.364C463.192 106.407 463.566 106.476 463.939 106.572C464.312 106.668 464.648 106.807 464.947 106.988C465.256 107.159 465.507 107.399 465.699 107.708C465.891 108.007 465.987 108.401 465.987 108.892C465.987 109.425 465.827 109.9 465.507 110.316C465.187 110.721 464.723 111.041 464.115 111.276C463.518 111.511 462.787 111.628 461.923 111.628ZM480.842 111.692L474.33 105.644C473.957 105.303 473.658 104.983 473.434 104.684C473.21 104.385 473.045 104.092 472.938 103.804C472.842 103.516 472.794 103.217 472.794 102.908C472.794 102.364 472.938 101.884 473.226 101.468C473.514 101.052 473.92 100.732 474.442 100.508C474.965 100.273 475.578 100.156 476.282 100.156C476.933 100.156 477.493 100.263 477.962 100.476C478.442 100.679 478.816 100.972 479.082 101.356C479.36 101.74 479.498 102.199 479.498 102.732C479.498 103.201 479.381 103.633 479.146 104.028C478.912 104.412 478.544 104.775 478.042 105.116C477.552 105.457 476.906 105.804 476.106 106.156C475.562 106.401 475.13 106.641 474.81 106.876C474.501 107.1 474.277 107.329 474.138 107.564C474 107.799 473.93 108.06 473.93 108.348C473.93 108.615 474.01 108.855 474.17 109.068C474.341 109.281 474.576 109.447 474.874 109.564C475.173 109.681 475.525 109.74 475.93 109.74C476.581 109.74 477.178 109.591 477.722 109.292C478.266 108.983 478.725 108.529 479.098 107.932C479.482 107.324 479.754 106.588 479.914 105.724L481.914 106.348C481.69 107.436 481.29 108.38 480.714 109.18C480.138 109.98 479.429 110.599 478.586 111.036C477.744 111.473 476.8 111.692 475.754 111.692C474.933 111.692 474.202 111.559 473.562 111.292C472.922 111.025 472.416 110.663 472.042 110.204C471.669 109.745 471.482 109.217 471.482 108.62C471.482 108.065 471.605 107.569 471.85 107.132C472.096 106.684 472.485 106.268 473.018 105.884C473.552 105.489 474.229 105.105 475.05 104.732C475.648 104.455 476.117 104.209 476.458 103.996C476.8 103.783 477.04 103.58 477.178 103.388C477.317 103.185 477.386 102.983 477.386 102.78C477.386 102.503 477.29 102.279 477.098 102.108C476.917 101.937 476.645 101.852 476.282 101.852C475.898 101.852 475.6 101.948 475.386 102.14C475.173 102.332 475.066 102.577 475.066 102.876C475.066 103.036 475.098 103.196 475.162 103.356C475.226 103.505 475.349 103.681 475.53 103.884C475.712 104.076 475.968 104.327 476.298 104.636L482.202 110.108L480.842 111.692ZM27.784 131.628C27.0693 131.628 26.4293 131.489 25.864 131.212C25.3093 130.935 24.8773 130.513 24.568 129.948C24.2587 129.372 24.104 128.641 24.104 127.756V122.892H26.6V127.388C26.6 128.103 26.7493 128.631 27.048 128.972C27.3573 129.303 27.7893 129.468 28.344 129.468C28.728 129.468 29.0693 129.388 29.368 129.228C29.6667 129.057 29.9013 128.801 30.072 128.46C30.2427 128.108 30.328 127.671 30.328 127.148V122.892H32.824V131.5H30.456V129.132L30.888 129.82C30.6 130.417 30.1733 130.871 29.608 131.18C29.0533 131.479 28.4453 131.628 27.784 131.628ZM35.1364 131.5V122.892H37.5204V125.276L37.0724 124.556C37.3817 123.98 37.8244 123.537 38.4004 123.228C38.9764 122.919 39.6324 122.764 40.3684 122.764C41.051 122.764 41.659 122.903 42.1924 123.18C42.7364 123.447 43.163 123.863 43.4724 124.428C43.7817 124.983 43.9364 125.697 43.9364 126.572V131.5H41.4404V126.956C41.4404 126.263 41.2857 125.751 40.9764 125.42C40.6777 125.089 40.251 124.924 39.6964 124.924C39.3017 124.924 38.9444 125.009 38.6244 125.18C38.315 125.34 38.0697 125.591 37.8884 125.932C37.7177 126.273 37.6324 126.711 37.6324 127.244V131.5H35.1364ZM46.1989 131.5V122.892H48.6949V131.5H46.1989ZM47.4469 121.692C46.9882 121.692 46.6149 121.559 46.3269 121.292C46.0389 121.025 45.8949 120.695 45.8949 120.3C45.8949 119.905 46.0389 119.575 46.3269 119.308C46.6149 119.041 46.9882 118.908 47.4469 118.908C47.9055 118.908 48.2789 119.036 48.5669 119.292C48.8549 119.537 48.9989 119.857 48.9989 120.252C48.9989 120.668 48.8549 121.015 48.5669 121.292C48.2895 121.559 47.9162 121.692 47.4469 121.692ZM54.6754 131.628C53.8647 131.628 53.134 131.447 52.4834 131.084C51.8327 130.721 51.3154 130.209 50.9314 129.548C50.558 128.887 50.3714 128.103 50.3714 127.196C50.3714 126.3 50.558 125.521 50.9314 124.86C51.3154 124.199 51.8327 123.687 52.4834 123.324C53.134 122.951 53.8647 122.764 54.6754 122.764C55.4327 122.764 56.078 122.924 56.6114 123.244C57.1554 123.564 57.5714 124.049 57.8594 124.7C58.1474 125.351 58.2914 126.183 58.2914 127.196C58.2914 128.199 58.142 129.031 57.8434 129.692C57.5447 130.343 57.1234 130.828 56.5794 131.148C56.0354 131.468 55.4007 131.628 54.6754 131.628ZM55.1074 129.58C55.5127 129.58 55.8807 129.484 56.2114 129.292C56.542 129.1 56.8034 128.828 56.9954 128.476C57.198 128.113 57.2994 127.687 57.2994 127.196C57.2994 126.695 57.198 126.268 56.9954 125.916C56.8034 125.564 56.542 125.292 56.2114 125.1C55.8807 124.908 55.5127 124.812 55.1074 124.812C54.6914 124.812 54.318 124.908 53.9874 125.1C53.6567 125.292 53.39 125.564 53.1874 125.916C52.9954 126.268 52.8994 126.695 52.8994 127.196C52.8994 127.687 52.9954 128.113 53.1874 128.476C53.39 128.828 53.6567 129.1 53.9874 129.292C54.318 129.484 54.6914 129.58 55.1074 129.58ZM57.2514 134.604V129.756L57.4114 127.212L57.3634 124.652V122.892H59.7474V134.604H57.2514ZM65.6903 131.628C64.9756 131.628 64.3356 131.489 63.7703 131.212C63.2156 130.935 62.7836 130.513 62.4743 129.948C62.1649 129.372 62.0103 128.641 62.0103 127.756V122.892H64.5063V127.388C64.5063 128.103 64.6556 128.631 64.9543 128.972C65.2636 129.303 65.6956 129.468 66.2503 129.468C66.6343 129.468 66.9756 129.388 67.2743 129.228C67.5729 129.057 67.8076 128.801 67.9783 128.46C68.1489 128.108 68.2343 127.671 68.2343 127.148V122.892H70.7303V131.5H68.3623V129.132L68.7943 129.82C68.5063 130.417 68.0796 130.871 67.5143 131.18C66.9596 131.479 66.3516 131.628 65.6903 131.628ZM77.3146 131.628C76.3333 131.628 75.4693 131.436 74.7226 131.052C73.9866 130.668 73.416 130.145 73.0106 129.484C72.6053 128.812 72.4026 128.049 72.4026 127.196C72.4026 126.332 72.6 125.569 72.9946 124.908C73.4 124.236 73.9493 123.713 74.6426 123.34C75.336 122.956 76.12 122.764 76.9946 122.764C77.8373 122.764 78.5946 122.945 79.2666 123.308C79.9493 123.66 80.488 124.172 80.8826 124.844C81.2773 125.505 81.4746 126.3 81.4746 127.228C81.4746 127.324 81.4693 127.436 81.4586 127.564C81.448 127.681 81.4373 127.793 81.4266 127.9H74.4346V126.444H80.1146L79.1546 126.876C79.1546 126.428 79.064 126.039 78.8826 125.708C78.7013 125.377 78.4506 125.121 78.1306 124.94C77.8106 124.748 77.4373 124.652 77.0106 124.652C76.584 124.652 76.2053 124.748 75.8746 124.94C75.5546 125.121 75.304 125.383 75.1226 125.724C74.9413 126.055 74.8506 126.449 74.8506 126.908V127.292C74.8506 127.761 74.952 128.177 75.1546 128.54C75.368 128.892 75.6613 129.164 76.0346 129.356C76.4186 129.537 76.8666 129.628 77.3786 129.628C77.8373 129.628 78.2373 129.559 78.5786 129.42C78.9306 129.281 79.2506 129.073 79.5386 128.796L80.8666 130.236C80.472 130.684 79.976 131.031 79.3786 131.276C78.7813 131.511 78.0933 131.628 77.3146 131.628ZM90.0036 131.5L86.3876 122.892H88.9636L91.9716 130.3H90.6916L93.8116 122.892H96.2116L92.5796 131.5H90.0036ZM97.2301 131.5V122.892H99.7261V131.5H97.2301ZM98.4781 121.692C98.0195 121.692 97.6461 121.559 97.3581 121.292C97.0701 121.025 96.9261 120.695 96.9261 120.3C96.9261 119.905 97.0701 119.575 97.3581 119.308C97.6461 119.041 98.0195 118.908 98.4781 118.908C98.9368 118.908 99.3101 119.036 99.5981 119.292C99.8861 119.537 100.03 119.857 100.03 120.252C100.03 120.668 99.8861 121.015 99.5981 121.292C99.3208 121.559 98.9475 121.692 98.4781 121.692ZM107.131 131.628C106.373 131.628 105.723 131.468 105.179 131.148C104.635 130.828 104.219 130.343 103.931 129.692C103.643 129.031 103.499 128.199 103.499 127.196C103.499 126.183 103.648 125.351 103.947 124.7C104.256 124.049 104.683 123.564 105.227 123.244C105.771 122.924 106.405 122.764 107.131 122.764C107.941 122.764 108.667 122.945 109.307 123.308C109.957 123.671 110.469 124.183 110.843 124.844C111.227 125.505 111.419 126.289 111.419 127.196C111.419 128.092 111.227 128.871 110.843 129.532C110.469 130.193 109.957 130.711 109.307 131.084C108.667 131.447 107.941 131.628 107.131 131.628ZM102.043 131.5V119.628H104.539V124.636L104.379 127.18L104.427 129.74V131.5H102.043ZM106.699 129.58C107.115 129.58 107.483 129.484 107.803 129.292C108.133 129.1 108.395 128.828 108.587 128.476C108.789 128.113 108.891 127.687 108.891 127.196C108.891 126.695 108.789 126.268 108.587 125.916C108.395 125.564 108.133 125.292 107.803 125.1C107.483 124.908 107.115 124.812 106.699 124.812C106.283 124.812 105.909 124.908 105.579 125.1C105.248 125.292 104.987 125.564 104.795 125.916C104.603 126.268 104.507 126.695 104.507 127.196C104.507 127.687 104.603 128.113 104.795 128.476C104.987 128.828 105.248 129.1 105.579 129.292C105.909 129.484 106.283 129.58 106.699 129.58ZM117.362 131.628C116.38 131.628 115.516 131.436 114.77 131.052C114.034 130.668 113.463 130.145 113.058 129.484C112.652 128.812 112.45 128.049 112.45 127.196C112.45 126.332 112.647 125.569 113.042 124.908C113.447 124.236 113.996 123.713 114.69 123.34C115.383 122.956 116.167 122.764 117.042 122.764C117.884 122.764 118.642 122.945 119.314 123.308C119.996 123.66 120.535 124.172 120.93 124.844C121.324 125.505 121.522 126.3 121.522 127.228C121.522 127.324 121.516 127.436 121.506 127.564C121.495 127.681 121.484 127.793 121.474 127.9H114.482V126.444H120.161L119.202 126.876C119.202 126.428 119.111 126.039 118.93 125.708C118.748 125.377 118.498 125.121 118.178 124.94C117.858 124.748 117.484 124.652 117.058 124.652C116.631 124.652 116.252 124.748 115.922 124.94C115.602 125.121 115.351 125.383 115.17 125.724C114.988 126.055 114.898 126.449 114.898 126.908V127.292C114.898 127.761 114.999 128.177 115.202 128.54C115.415 128.892 115.708 129.164 116.082 129.356C116.466 129.537 116.914 129.628 117.426 129.628C117.884 129.628 118.284 129.559 118.626 129.42C118.978 129.281 119.298 129.073 119.586 128.796L120.914 130.236C120.519 130.684 120.023 131.031 119.426 131.276C118.828 131.511 118.14 131.628 117.362 131.628ZM126.079 131.628C125.343 131.628 124.634 131.543 123.951 131.372C123.279 131.191 122.746 130.967 122.351 130.7L123.183 128.908C123.578 129.153 124.042 129.356 124.575 129.516C125.119 129.665 125.653 129.74 126.175 129.74C126.751 129.74 127.157 129.671 127.391 129.532C127.637 129.393 127.759 129.201 127.759 128.956C127.759 128.753 127.663 128.604 127.471 128.508C127.29 128.401 127.045 128.321 126.735 128.268C126.426 128.215 126.085 128.161 125.711 128.108C125.349 128.055 124.981 127.985 124.607 127.9C124.234 127.804 123.893 127.665 123.583 127.484C123.274 127.303 123.023 127.057 122.831 126.748C122.65 126.439 122.559 126.039 122.559 125.548C122.559 125.004 122.714 124.524 123.023 124.108C123.343 123.692 123.802 123.367 124.399 123.132C124.997 122.887 125.711 122.764 126.543 122.764C127.13 122.764 127.727 122.828 128.335 122.956C128.943 123.084 129.45 123.271 129.855 123.516L129.023 125.292C128.607 125.047 128.186 124.881 127.759 124.796C127.343 124.7 126.938 124.652 126.543 124.652C125.989 124.652 125.583 124.727 125.327 124.876C125.071 125.025 124.943 125.217 124.943 125.452C124.943 125.665 125.034 125.825 125.215 125.932C125.407 126.039 125.658 126.124 125.967 126.188C126.277 126.252 126.613 126.311 126.975 126.364C127.349 126.407 127.722 126.476 128.095 126.572C128.469 126.668 128.805 126.807 129.103 126.988C129.413 127.159 129.663 127.399 129.855 127.708C130.047 128.007 130.143 128.401 130.143 128.892C130.143 129.425 129.983 129.9 129.663 130.316C129.343 130.721 128.879 131.041 128.271 131.276C127.674 131.511 126.943 131.628 126.079 131.628ZM132.627 131.628C132.201 131.628 131.833 131.484 131.523 131.196C131.225 130.897 131.075 130.519 131.075 130.06C131.075 129.601 131.225 129.233 131.523 128.956C131.833 128.668 132.201 128.524 132.627 128.524C133.065 128.524 133.433 128.668 133.731 128.956C134.03 129.233 134.179 129.601 134.179 130.06C134.179 130.519 134.03 130.897 133.731 131.196C133.433 131.484 133.065 131.628 132.627 131.628Z" fill="#8D8AA8"/>
<path d="M654 110H566C562.686 110 560 112.686 560 116V132C560 135.314 562.686 138 566 138H654C657.314 138 660 135.314 660 132V116C660 112.686 657.314 110 654 110Z" fill="#8F93FF" stroke="black" stroke-width="3"/>
<path d="M580.948 127V119.3H584.446C585.282 119.3 586.019 119.461 586.657 119.784C587.295 120.099 587.793 120.543 588.153 121.115C588.512 121.687 588.692 122.365 588.692 123.15C588.692 123.927 588.512 124.606 588.153 125.185C587.793 125.757 587.295 126.204 586.657 126.527C586.019 126.842 585.282 127 584.446 127H580.948ZM582.73 125.537H584.358C584.871 125.537 585.315 125.442 585.689 125.251C586.07 125.053 586.363 124.774 586.569 124.415C586.781 124.056 586.888 123.634 586.888 123.15C586.888 122.659 586.781 122.237 586.569 121.885C586.363 121.526 586.07 121.251 585.689 121.06C585.315 120.862 584.871 120.763 584.358 120.763H582.73V125.537ZM590.036 127V119.3H595.855V120.73H591.807V125.57H595.998V127H590.036ZM591.675 123.788V122.402H595.382V123.788H591.675ZM599.945 127.132C599.329 127.132 598.739 127.051 598.174 126.89C597.61 126.721 597.155 126.505 596.81 126.241L597.415 124.899C597.745 125.134 598.134 125.328 598.581 125.482C599.036 125.629 599.494 125.702 599.956 125.702C600.308 125.702 600.591 125.669 600.803 125.603C601.023 125.53 601.185 125.431 601.287 125.306C601.39 125.181 601.441 125.038 601.441 124.877C601.441 124.672 601.361 124.51 601.199 124.393C601.038 124.268 600.825 124.169 600.561 124.096C600.297 124.015 600.004 123.942 599.681 123.876C599.366 123.803 599.047 123.715 598.724 123.612C598.409 123.509 598.119 123.377 597.855 123.216C597.591 123.055 597.375 122.842 597.206 122.578C597.045 122.314 596.964 121.977 596.964 121.566C596.964 121.126 597.082 120.726 597.316 120.367C597.558 120 597.918 119.711 598.394 119.498C598.878 119.278 599.483 119.168 600.209 119.168C600.693 119.168 601.17 119.227 601.639 119.344C602.109 119.454 602.523 119.623 602.882 119.85L602.332 121.203C601.973 120.998 601.614 120.847 601.254 120.752C600.895 120.649 600.543 120.598 600.198 120.598C599.854 120.598 599.571 120.638 599.351 120.719C599.131 120.8 598.974 120.906 598.878 121.038C598.783 121.163 598.735 121.309 598.735 121.478C598.735 121.676 598.816 121.837 598.977 121.962C599.139 122.079 599.351 122.175 599.615 122.248C599.879 122.321 600.169 122.395 600.484 122.468C600.807 122.541 601.126 122.626 601.441 122.721C601.764 122.816 602.057 122.945 602.321 123.106C602.585 123.267 602.798 123.48 602.959 123.744C603.128 124.008 603.212 124.342 603.212 124.745C603.212 125.178 603.091 125.574 602.849 125.933C602.607 126.292 602.244 126.582 601.76 126.802C601.284 127.022 600.679 127.132 599.945 127.132ZM604.43 127V119.3H606.212V127H604.43ZM611.757 127.132C611.149 127.132 610.588 127.037 610.074 126.846C609.568 126.648 609.125 126.369 608.743 126.01C608.369 125.651 608.076 125.229 607.863 124.745C607.658 124.261 607.555 123.729 607.555 123.15C607.555 122.571 607.658 122.039 607.863 121.555C608.076 121.071 608.373 120.649 608.754 120.29C609.136 119.931 609.583 119.656 610.096 119.465C610.61 119.267 611.174 119.168 611.79 119.168C612.472 119.168 613.085 119.282 613.627 119.509C614.177 119.736 614.639 120.066 615.013 120.499L613.869 121.555C613.591 121.262 613.286 121.045 612.956 120.906C612.626 120.759 612.267 120.686 611.878 120.686C611.504 120.686 611.163 120.745 610.855 120.862C610.547 120.979 610.28 121.148 610.052 121.368C609.832 121.588 609.66 121.848 609.535 122.149C609.418 122.45 609.359 122.783 609.359 123.15C609.359 123.509 609.418 123.839 609.535 124.14C609.66 124.441 609.832 124.705 610.052 124.932C610.28 125.152 610.544 125.321 610.844 125.438C611.152 125.555 611.49 125.614 611.856 125.614C612.208 125.614 612.549 125.559 612.879 125.449C613.217 125.332 613.543 125.137 613.858 124.866L614.87 126.153C614.452 126.468 613.965 126.71 613.407 126.879C612.857 127.048 612.307 127.132 611.757 127.132ZM614.87 126.153L613.242 125.922V123.029H614.87V126.153ZM616.526 127V119.3H618L622.543 124.844H621.828V119.3H623.588V127H622.125L617.571 121.456H618.286V127H616.526ZM625.41 127V119.3H631.229V120.73H627.181V125.57H631.372V127H625.41ZM627.049 123.788V122.402H630.756V123.788H627.049ZM632.789 127V119.3H636.078C637.149 119.3 637.981 119.549 638.575 120.048C639.169 120.539 639.466 121.221 639.466 122.094C639.466 122.666 639.331 123.161 639.059 123.579C638.788 123.99 638.403 124.305 637.904 124.525C637.406 124.745 636.812 124.855 636.122 124.855H633.779L634.571 124.074V127H632.789ZM637.684 127L635.759 124.206H637.662L639.609 127H637.684ZM634.571 124.272L633.779 123.436H636.023C636.573 123.436 636.984 123.319 637.255 123.084C637.527 122.842 637.662 122.512 637.662 122.094C637.662 121.669 637.527 121.339 637.255 121.104C636.984 120.869 636.573 120.752 636.023 120.752H633.779L634.571 119.905V124.272Z" fill="black"/>
<path d="M764 110H676C672.686 110 670 112.686 670 116V132C670 135.314 672.686 138 676 138H764C767.314 138 770 135.314 770 132V116C770 112.686 767.314 110 764 110Z" fill="#C8FF00" stroke="black" stroke-width="3"/>
<path d="M685.415 127V119.3H688.913C689.749 119.3 690.486 119.461 691.124 119.784C691.762 120.099 692.261 120.543 692.62 121.115C692.98 121.687 693.159 122.365 693.159 123.15C693.159 123.927 692.98 124.606 692.62 125.185C692.261 125.757 691.762 126.204 691.124 126.527C690.486 126.842 689.749 127 688.913 127H685.415ZM687.197 125.537H688.825C689.339 125.537 689.782 125.442 690.156 125.251C690.538 125.053 690.831 124.774 691.036 124.415C691.249 124.056 691.355 123.634 691.355 123.15C691.355 122.659 691.249 122.237 691.036 121.885C690.831 121.526 690.538 121.251 690.156 121.06C689.782 120.862 689.339 120.763 688.825 120.763H687.197V125.537ZM694.503 127V119.3H700.322V120.73H696.274V125.57H700.465V127H694.503ZM696.142 123.788V122.402H699.849V123.788H696.142ZM704.086 127L700.764 119.3H702.689L705.593 126.12H704.46L707.408 119.3H709.179L705.846 127H704.086ZM709.822 127V119.3H715.641V120.73H711.593V125.57H715.784V127H709.822ZM711.461 123.788V122.402H715.168V123.788H711.461ZM717.202 127V119.3H718.984V125.548H722.845V127H717.202ZM727.451 127.132C726.843 127.132 726.278 127.033 725.757 126.835C725.244 126.637 724.797 126.358 724.415 125.999C724.041 125.64 723.748 125.218 723.535 124.734C723.33 124.25 723.227 123.722 723.227 123.15C723.227 122.578 723.33 122.05 723.535 121.566C723.748 121.082 724.045 120.66 724.426 120.301C724.808 119.942 725.255 119.663 725.768 119.465C726.282 119.267 726.839 119.168 727.44 119.168C728.049 119.168 728.606 119.267 729.112 119.465C729.626 119.663 730.069 119.942 730.443 120.301C730.825 120.66 731.122 121.082 731.334 121.566C731.547 122.043 731.653 122.571 731.653 123.15C731.653 123.722 731.547 124.254 731.334 124.745C731.122 125.229 730.825 125.651 730.443 126.01C730.069 126.362 729.626 126.637 729.112 126.835C728.606 127.033 728.053 127.132 727.451 127.132ZM727.44 125.614C727.785 125.614 728.1 125.555 728.386 125.438C728.68 125.321 728.936 125.152 729.156 124.932C729.376 124.712 729.545 124.452 729.662 124.151C729.787 123.85 729.849 123.517 729.849 123.15C729.849 122.783 729.787 122.45 729.662 122.149C729.545 121.848 729.376 121.588 729.156 121.368C728.944 121.148 728.691 120.979 728.397 120.862C728.104 120.745 727.785 120.686 727.44 120.686C727.096 120.686 726.777 120.745 726.483 120.862C726.197 120.979 725.944 121.148 725.724 121.368C725.504 121.588 725.332 121.848 725.207 122.149C725.09 122.45 725.031 122.783 725.031 123.15C725.031 123.509 725.09 123.843 725.207 124.151C725.332 124.452 725.501 124.712 725.713 124.932C725.933 125.152 726.19 125.321 726.483 125.438C726.777 125.555 727.096 125.614 727.44 125.614ZM732.993 127V119.3H736.326C737.015 119.3 737.609 119.414 738.108 119.641C738.606 119.861 738.991 120.18 739.263 120.598C739.534 121.016 739.67 121.515 739.67 122.094C739.67 122.666 739.534 123.161 739.263 123.579C738.991 123.997 738.606 124.32 738.108 124.547C737.609 124.767 737.015 124.877 736.326 124.877H733.983L734.775 124.074V127H732.993ZM734.775 124.272L733.983 123.425H736.227C736.777 123.425 737.187 123.308 737.459 123.073C737.73 122.838 737.866 122.512 737.866 122.094C737.866 121.669 737.73 121.339 737.459 121.104C737.187 120.869 736.777 120.752 736.227 120.752H733.983L734.775 119.905V124.272ZM740.942 127V119.3H746.761V120.73H742.713V125.57H746.904V127H740.942ZM742.581 123.788V122.402H746.288V123.788H742.581ZM748.322 127V119.3H751.611C752.681 119.3 753.514 119.549 754.108 120.048C754.702 120.539 754.999 121.221 754.999 122.094C754.999 122.666 754.863 123.161 754.592 123.579C754.32 123.99 753.935 124.305 753.437 124.525C752.938 124.745 752.344 124.855 751.655 124.855H749.312L750.104 124.074V127H748.322ZM753.217 127L751.292 124.206H753.195L755.142 127H753.217ZM750.104 124.272L749.312 123.436H751.556C752.106 123.436 752.516 123.319 752.788 123.084C753.059 122.842 753.195 122.512 753.195 122.094C753.195 121.669 753.059 121.339 752.788 121.104C752.516 120.869 752.106 120.752 751.556 120.752H749.312L750.104 119.905V124.272Z" fill="black"/>
</svg>
