<svg xmlns="http://www.w3.org/2000/svg" viewBox="0 0 1280 640">
  <defs>
    <linearGradient id="bg" x1="0" y1="0" x2="0" y2="1">
      <stop offset="0" stop-color="#8aa1ff"/>
      <stop offset="1" stop-color="#b581ff"/>
    </linearGradient>
  </defs>
  <rect width="1280" height="640" rx="32" fill="url(#bg)"/>
  <g opacity=".08">
    <circle cx="1080" cy="96" r="160" fill="#000"/>
    <circle cx="240" cy="540" r="220" fill="#000"/>
  </g>
  <text x="40" y="600" font-family="Segoe UI, Arial" font-weight="700" font-size="58" fill="#fff" opacity=".85">mono</text>
  <g transform="translate(760 160)">
    <rect x="-40" y="-20" rx="16" ry="16" width="260" height="80" fill="#fff"/>
    <text x="90" y="35" font-family="Segoe UI, Arial" font-size="36" text-anchor="middle">решаю питання</text>
  </g>
  <g transform="translate(420 120)">
    <path d="M240 60c72 0 120 64 120 128 0 124-88 176-160 176s-160-52-160-176C40 124 88 60 160 60z" fill="#fff"/>
    <rect x="140" y="180" width="72" height="120" rx="10" fill="#111"/>
    <rect x="212" y="180" width="24" height="64" rx="3" fill="#111"/>
    <rect x="110" y="158" width="52" height="24" rx="4" fill="#111"/>
    <circle cx="200" cy="160" r="64" fill="#fff"/>
    <rect x="168" y="138" width="64" height="18" rx="9" fill="#111"/>
    <circle cx="188" cy="146" r="6" fill="#fff"/>
  </g>
</svg>

